<?xml version="1.0" standalone="no"?>
<!DOCTYPE svg PUBLIC "-//W3C//DTD SVG 1.1//EN" "http://www.w3.org/Graphics/SVG/1.1/DTD/svg11.dtd" >
<svg xmlns="http://www.w3.org/2000/svg" xmlns:xlink="http://www.w3.org/1999/xlink" version="1.1">
<metadata></metadata>
<defs>
<font id="projectsfenotype" horiz-adv-x="2600" >
<font-face units-per-em="2048" ascent="1638" descent="-410" />
<missing-glyph horiz-adv-x="1024" />
<glyph horiz-adv-x="0" />
<glyph horiz-adv-x="682" />
<glyph unicode=" "  horiz-adv-x="1024" />
<glyph unicode="&#x09;" horiz-adv-x="1024" />
<glyph unicode="&#xa0;" horiz-adv-x="1024" />
<glyph unicode="!" horiz-adv-x="2109" d="M451 20q182 -12 460 -18q80 -2 113 -2q313 0 473 139q147 129 223 434q16 111 62 328l307 1610q0 10 2 26v29v25q0 238 -129 387q-137 156 -365 155h-696q-168 0 -291 -116q-106 -100 -164 -271q-37 -104 -57 -206q-12 -61 -29 -150l-145 -762q-27 -127 -72 -379 q-35 -88 -53 -223q-14 -113 -29 -227q-2 -18 -26 -113q-16 -68 -17 -115q1 -463 433 -551zM512 573l131 635h682l-121 -676h-672q-10 0 -20 21v20zM676 1372l246 1249h655l20 -20q-66 -299 -98 -492q-14 -78 -24 -163v-21l-127 -594h-652l-20 21v20z" />
<glyph unicode="," horiz-adv-x="1802" d="M20 543q0 -174 84 -293q57 -86 224 -209q53 -41 176 -174q70 -78 233 -113q80 0 172 -4h43q315 0 447 84q158 100 219 391q8 37 49 256l68 365q16 88 28 158l19 102v41q0 223 -137.5 377.5t-354.5 154.5h-717q-256 0 -389 -325q-72 -172 -94 -375q-10 -90 -10 -160h473 q8 16 20 62q10 39 33 143l17 86q8 41 12 57q16 8 41 21h20l574 -21l20 -20l-6 -41q-12 -70 -37 -211q-8 -41 -17 -96.5t-28 -163.5l-24 -131q-25 -141 -52 -221q-12 -37 -20 -37h-246q-31 0 -37 10t-6 45q0 80 23 170l-21 31h-287q-6 0 -20 30v11q0 33 12.5 96t12.5 98h-476 q-12 0 -28 -90q-13 -69 -13 -104z" />
<glyph unicode="-" horiz-adv-x="2048" />
<glyph unicode="." horiz-adv-x="1822" d="M18 567q0 -262 129 -397q106 -113 324 -150q135 -23 434 -22h135q129 0 238 25q59 12 135 38q16 23 61.5 52.5t61.5 50.5q82 104 125 246q16 57 59 266q23 125 66 375q12 68 15 99.5t3 35.5q0 215 -141 364.5t-352 149.5h-676q-154 0 -295 -107q-145 -113 -176 -262 l-144 -717q-2 -39 -2 -47zM512 553l123 635h674l-121 -656q0 -4 -103 -10l-88 -6q-45 -4 -75 -4h-27h-55q-37 -2 -56 -2h-84q-18 0 -57 2h-55h-35q-20 0 -41 20v21z" />
<glyph unicode="/" horiz-adv-x="2048" />
<glyph unicode="0" horiz-adv-x="3112" d="M410 20l161 -6l230 -8l162 -6h286q45 0 142 2l946 16q96 0 141 2q358 102 410 451l164 1126q43 53 43 177v59q0 371 -392 461q-47 10 -61 20h-1966q-109 0 -240 -94q-121 -86 -170 -192q-4 -8 -10 -60q-10 -66 -10 -63l-6 -29q-8 -29 -25 -86q-8 -20 -10 -29l-185 -1188 v-28q-2 -20 -2 -31q0 -188 103 -326q109 -145 289 -168zM512 512v31q-2 20 -2 30q0 186 57 474q78 381 88 469l11 79q6 49 14 95l12 79l4 33l21 21l1638 20q23 0 197 -14q35 -4 49 -6v-144l-184 -1126l-21 -41l-51 -2q-53 -2 -135 -4l-604 -12q-100 -2 -172 -2h-45h-93 q-61 -2 -92 -3h-237q-135 0 -285 9q-76 4 -170 14zM1145 1198q0 -23 27.5 -37t52.5 -14h24q35 0 123 4l371 12q86 2 121 4q16 2 26 41q2 12 2 25v16h-684q-16 0 -39.5 -17.5t-23.5 -33.5z" />
<glyph unicode="1" horiz-adv-x="2027" d="M635 20q18 -2 162 -8l229 -8q109 -4 162 -4q315 0 473 180q125 141 176 436q18 100 45 351q27 223 53 350l35 166q39 193 39 342q0 176 -115 319q-123 150 -297 150h-1044q-162 0 -287 -127q-113 -117 -143 -283q-4 -25 -21 -121l-82 -493v-31q-2 -20 -2 -31 q0 -266 207 -450q-6 -66 -6 -131q0 -203 62 -340q100 -228 354 -267zM696 522q0 92 52.5 288t52.5 288q0 27 -18.5 48t-45.5 21h-233q0 8 2 29l2 43q0 10 2 34.5t2 37.5l16 125q8 76 19 147l18 125q6 51 8 53l41 41l697 21q82 0 205 -21v-102l-189 -1188l-610 -20l-21 20v10 z" />
<glyph unicode="2" horiz-adv-x="2990" d="M20 532q0 -309 226 -438q172 -100 499 -100h41l50 2q74 4 65 4l21 31h163q45 0 43 55q-2 10 -7 34.5t-5 31.5q96 0 107 51q4 33 22 43q12 8 51 8q0 -31 -2 -74q-14 -180 97 -180q49 0 144 20.5t144 20.5q31 0 62 -21h45h72q47 -2 71 -2h47q375 0 539 105q193 123 250 471 l205 1229q0 10 2 32v33q0 205 -119 361q-129 168 -334 168h-1147q-23 0 -43 -19.5t-20 -42.5q0 -4 2 -20q0 -2 20 -31q6 -12 21 -31l2 -4v-6q0 -33 -29 -35q-31 -2 -65 2q-37 2 -66 0q-31 -4 -31 -39q0 -45 85 -42t85 -48v-16q-2 -10 -2 -15.5t-10 -21.5t-10 -20 q10 -66 51 -89q29 -16 102 -16h37q23 2 35 2q27 10 20 25q-6 12 -6 28q4 0 23.5 5.5t23.5 3.5q10 -6 62 -29q43 -20 61 -33h717q43 0 43 -39v-12q-2 -6 -2 -10l-102 -574q-14 -86 -33 -180q-6 -33 -8 -45q-236 -18 -482 -21q-246 -4 -481 0q-43 -20 -43 -61t51 -41h13 l368 21q-4 0 156 -7l221 -8q51 0 156 -6q0 -14 2 -41v-41v-84q0 -164 -64 -244q-66 -6 -143 -4q-80 2 -162 2q-207 -4 -309 -38q0 -51 -2 -101q-8 -59 -62 -59q0 18 2 49q2 29 0 59q-4 72 -40 72h-216v-158q-16 -16 -43 -26q-18 -8 -28 0q-29 20 -36 41.5t-13 46.5 q-12 35 -105 35h-10q-84 -43 -84 -185q0 -41 63.5 -51t61.5 -51q-29 -2 -50.5 -20.5t-39 -32t-35.5 -13.5q-23 0 -43 58q-18 51 -18 80q0 18 11 41.5t11 39.5q0 109 -29 170q-12 25 -32 25h-344q0 137 57 451q16 90 53 272l8 35l21 20h104q70 -2 105 -2h297q35 0 106 2h105 q86 0 229 15q41 4 57 6v61l-20 4q-35 4 -111 13l-53 4q-10 0 -33 2h-32h-52q-27 0 -47 -23h-39h-59q-39 -2 -59 -2h-154q-150 0 -324 23q-23 8 -22 39v12q2 6 2 10q12 72 41 217l24 129q10 59 17 84q6 14 20 21q47 12 115 18q20 2 29 2l20 41v307q23 27 23 62q0 82 -125 82 q-354 0 -533 -308q-121 -545 -287 -1556v-21zM1188 61l20 -20v20h-20zM1698 205v10q2 6 2 10q23 -8 22 -41v-10q-2 -6 -2 -10q-22 8 -22 41zM1053 373q51 0 73 -66h-10q-63 0 -63 66zM1884 348q10 -2 10 -10t-10 -10t-10 10t10 10zM1761 389q10 -4 11 -20q0 -16 -11 -21 q-10 -4 -10 21q0 24 10 20zM1270 1024q-16 0 -17 -20q0 -20 17 -21q16 0 16 21q0 20 -16 20zM1223 2056q0 -74 51 -74q0 74 -51 74zM999 2079q0 -53 76 -54h17q10 2 14 3q-33 41 -102 81q-5 -7 -5 -30zM1556 2089q10 -4 11 -10q0 -6 -11 -11q-10 -4 -10 11q0 14 10 10z M1741 2089q16 0 16 -21q0 -20 -16 -20t-17 20q1 21 17 21zM1024 2212v-66q43 0 43 35v6l-2 4q-6 14 -21 21l-4 2h-6h-4q-4 -2 -6 -2zM1556 2253h21l-21 -41v41z" />
<glyph unicode="3" horiz-adv-x="3297" d="M18 524q0 -227 138 -364q129 -129 356 -160h778q47 0 146 2l960 16q96 0 144 2q303 66 426 220q51 63 65 149l246 1413q0 10 2 29v31q0 158 -70 284q-72 137 -205 205q-88 45 -198 45h-2069q-20 0 -82 -20l-61 -21q-117 -39 -166 -78q-86 -66 -125 -170q-23 -66 -43 -206 q-29 -203 -76 -304l-164 -1003v-35q-2 -23 -2 -35zM512 551v22q31 190 53 291l8 37l21 21l57 2q55 2 146 4l434 8q346 6 407 6h287q25 4 23 47q-2 6 -6.5 21.5t-4.5 23.5h-1329q0 31 -2 80q-4 109 23 193q14 43 47 65q166 -2 332 -2q543 0 999 23q14 6 21 20l2 4v6v7l-2 4 q-25 41 -41 41h-1313q0 219 63 409q-4 0 252 6l510 13q66 2 98 2h127q41 0 121 2h119h320h174q115 -2 172 -2h114q31 -10 41 -21v-20l-205 -1291l-20 -41q0 -2 -92 -6q-41 -2 -92 -4l-203 -8q-49 -2 -84 -2h-170h-162q-109 -2 -162 -2h-514q-53 0 -161 2h-160h-228 q-20 8 -20 39z" />
<glyph unicode="4" horiz-adv-x="2539" d="M18 932q0 -197 144 -336q129 -127 330 -166q14 0 116 -14q25 -4 30 -8.5t17 -30.5q115 -266 310 -346q70 -31 161 -31h676l84 25q78 20 101 28q63 23 90.5 47.5t76 83t78.5 82.5q70 178 121 555l23 162v21l102 532q-2 18 -2 37q0 37 18 123q25 115 25 157 q0 201 -116.5 337.5t-313.5 164.5q4 0 -256 6l-522 13q-70 2 -103 2h-88q-139 0 -235 -4l-119 -7q-98 -6 -131 -10q-74 -8 -127 -26q-150 -57 -283 -240q-16 -72 -49 -213q-12 -45 -29 -150l-110 -645q-12 -66 -17 -98v-27q-2 -16 -2 -24zM1190 870v15q0 47 -23 47h-657 q0 84 22 201q20 100 41 198q29 162 68 410l14 102l21 21h575v-21q-2 -14 -2 -20l-61 -422q0 -31 55 -31q37 0 64 129q10 78 34 238q18 127 31 127h641q0 -127 -31 -299q-29 -147 -57 -295q-6 -35 -37 -219l-51 -316q-12 -76 -20 -135l-15 -88h-663q0 61 25.5 179t25.5 179z " />
<glyph unicode="5" horiz-adv-x="2928" d="M18 514q0 -207 123 -356q129 -158 330 -158h1741q174 0 291 117q92 92 151 270q37 119 70 309l123 758q18 100 51 301l10 68q2 35 2 41q0 233 -198 372q-174 121 -416 121h-43q-92 0 -103 -63q-16 -98 -49 -295q-10 -53 -13 -71.5t-3 -74.5h311l21 -30v-21l-41 -205v-41 l-11 -61q-6 -37 -12 -70l-18 -84h-553q-6 -4 -29 -14l-33 -16h-20q-16 6 -41 20h-418q0 -29 8 -61q10 -20 21 -21h553q23 20 59 21q57 0 146 -8q121 -12 145 -13q47 -4 100 0q23 -4 23 -24v-33q0 -172 -84 -598q0 -39 -21 -82q-8 -14 -20 -20q-2 0 -156 -7l-221 -8 q-160 -6 -156 -6h-20q-41 0 -125 2l-834 16q-86 2 -127 3q-20 8 -20 38q0 78 23 187q20 92 38 184h107q72 -2 108 -2h306q37 0 108 2h109q82 0 215 14q37 4 51 7q23 8 22 45v10l-2 6l-102 21h-881q-23 0 -22 49q0 23 26 202q33 219 60 363q35 197 59 225q324 16 645 21 q322 4 646 0l20 41q4 6 29 143q25 129 32 205q0 6 2 22l3 35q2 47 2 53h-136q-86 0 -694 -4q-117 -2 -209 -2l-135 -2q-373 -6 -549 -145q-82 -66 -112 -189q-10 -33 -35 -219q-12 -86 -23 -127q-14 -70 -39 -119l-164 -983v-28q-2 -21 -2 -31zM1925 410q16 0 17 -21 q0 -20 -17 -20q-16 0 -16 20q0 21 16 21zM1491 1993q23 0 75 -15.5t52 -31.5v-21q-68 8 -80 12q-47 15 -47 56zM1720 1925q-4 -10 -10 -10t-10 10t10 10t10 -10zM1126 1987h21v-21zM1372 2048l21 -20h-21v20zM1597 2150q8 27 62 27v-53q-54 -1 -62 26zM2028 2171 q16 0 16 -21q0 -20 -16 -20t-17 20q1 21 17 21zM1454 2232q6 0 21 2h20q57 0 61 -22h-102v20z" />
<glyph unicode="6" horiz-adv-x="3194" d="M20 573q25 -25 25 -84q0 -10 -2 -37.5t-2 -41.5q12 -184 158 -287q98 -72 313 -123h219q53 0 158 -2h158h501h158q104 2 156 2h166q176 0 419 14q76 4 93 6q129 14 241 80q125 76 168 186.5t78 344.5q14 115 31 231q18 139 43 232l34 133q41 160 41 266q0 94 -47 227 q-55 154 -118 185l-123 41l-29 14q-29 14 -86 43q-20 10 -29 14h-962q-111 219 -328 293q-143 47 -453 47h-131q-193 0 -358 -63q-111 -78 -170 -183q-31 -55 -96 -227zM287 328q16 0 16 -21q0 -20 -16 -20t-17 20q1 21 17 21zM1741 328q16 0 16 -21q0 -20 -16 -20t-17 20 q1 21 17 21zM2314 369q4 0 10 2h11q33 0 41 -23h-62v21zM510 512l166 1085q23 25 22 72q0 51 -63 72q41 4 72.5 31.5t31.5 68.5q0 10 -2 23h553l21 -21q-8 -49 -33 -180q-6 -33 -8 -45v-10q0 -47 41 -72h409q25 0 76 -2h92q96 -2 201 -4l391 -8q80 -2 131 -4l51 -2l21 -21 l-164 -942l-20 -41l-60 -2q-59 -2 -153 -4l-697 -12q-115 -2 -196 -2h-78h-146q-96 -2 -145 -3h-199q-33 0 -96 3h-94h-41zM205 963q16 0 16 -21q0 -20 -16 -20t-17 20q1 21 17 21zM348 1024q16 0 17 -20q0 -20 -17 -21q-16 0 -16 21q0 20 16 20zM1186 1044q0 -41 22 -40 h574q90 0 137 40q18 14 18 41h-729q-22 0 -22 -41zM328 1044q16 0 16 -20t-16 -20t-17 20q1 20 17 20zM369 1249q16 0 16 -20t-16 -21q-16 0 -17 21q1 20 17 20zM2212 1638h20v-20h-20v20zM1679 1741q25 -12 25 -41h-25v41zM2826 1843l21 21l41 -41h-11q-6 -2 -10 -2 q-33 -1 -41 22z" />
<glyph unicode="7" horiz-adv-x="2457" d="M614 389q4 -98 93 -203q78 -98 174 -145q6 -4 71 -10q74 -10 72 -11q49 -12 61 -20h697q4 0 18 6l37 10q139 45 217 119q145 137 195 440q12 115 45 347q-4 16 -4 71t4 72q0 4 20.5 41t20.5 41q23 84 22 235q0 41 -2 72q59 43 78 170q6 53 6 107v94q0 420 -411 510 q2 0 -209 6l-424 12q-57 2 -84 2h-451q-10 -4 -35.5 -22.5t-36.5 -18.5q-16 0 -39.5 11.5t-41.5 11.5h-17q-10 -2 -14 -2t-20.5 -10.5t-20.5 -10.5q-8 0 -43 10.5t-39 10.5q-98 0 -216 -122t-118 -218h31q90 0 119 -29v-8q0 -188 -29 -309q-12 -53 -33 -93q14 -6 21 -20v-10 q0 -20 -7.5 -55t-7.5 -58h-108q2 43 -39 43q-84 0 -84 -74v-10l41 -61v-21q0 -12 -14 -98q-4 -18 -7 -25q16 -43 70 -43q16 0 35 13l12 8q6 4 17 4h6q2 -2 4 -2l-21 -41l41 20v-20q-16 -41 -41 -82q0 4 -8 12t-12 8q-31 0 -82 -20q20 -53 117 -63q39 -4 77 -3q37 2 62 3h22 q12 0 35 2h33h23q18 49 24 178q6 117 37 170q152 18 307 22q176 2 307 -2q43 -2 43 39q0 35 -22 43h-117q-80 -2 -119 -2q-76 0 -141 2h-94q-45 0 -127 17q-16 2 -17 4v266q33 20 42.5 47t19.5 55q18 35 147 51q82 10 170 11h11q20 0 55 -4q45 -6 57 -7q117 -10 113 -10h106 q72 -2 109 -2h305q37 0 109 2h108q23 -4 23 -49q0 -205 -64 -510q-94 -451 -102 -506l-10 -73q-8 -53 -25 -162l-6 -31l-21 -20h-633q0 59 20.5 169.5t20.5 169.5q0 90 -63 91h-758q-100 -27 -295 -27q0 -12 13 -80q6 -27 16 -78q2 -20 51 -30q25 -6 31 -9q16 -8 20 -22 q23 -96 61 -142.5t124 -82.5q29 -12 69 -15l82 -6q100 -8 135 -41zM1065 307l20 -20q-14 -25 -45 -25q0 31 25 45zM819 369q-4 -10 -10 -11q-6 0 -10 11q-4 10 10 10t10 -10zM1229 389v-20h-21zM1352 389q10 -2 10 -10t-10 -10t-11 10q1 12 11 10zM2048 389q16 0 16 -20 t-16 -21q-16 0 -16 21q0 20 16 20zM1495 389q-4 -10 -10 -10t-10 10t10 10t10 -10zM102 799q0 4 8.5 12t12.5 8q6 -14 20 -20h11q66 0 65 82h14v-58q0 -68 -73 -67q-33 0 -45.5 7t-12.5 36zM41 1044q-16 0 -16 -20t16 -20t16 20t-16 20zM39 1096q0 -2 2 -11q6 -14 20 -20h5 q4 -2 6 -2t6 2h4q14 6 20 20l-41 41q-14 -6 -20 -20v-4q-2 -4 -2 -6zM135 1208h49v-41q-49 6 -49 41zM225 1208q10 0 21 21q8 41 8 82h45q0 -68 -25 -103q-10 -14 -28 -20zM229 1751q-59 0 -86 -51h17q8 -2 14 -2q55 0 55 53zM553 1720q-2 -10 -10 -10t-11 10q-2 10 11 11 q12 -1 10 -11zM2212 1741q16 0 16 -21q0 -20 -16 -20t-17 20q1 21 17 21zM2048 1864q2 0 6 2h4q33 0 33 -43q0 -41 -43 -62v103z" />
<glyph unicode="8" horiz-adv-x="3194" d="M18 543q0 -242 155 -392.5t392 -150.5h49q53 0 152 2l496 4q98 2 294.5 3t296.5 3l273 4q49 0 186 2q117 2 187 2q244 61 354 177q45 47 55 110q4 55 33 166q18 35 49 119q25 129 22 252t40 180l122 758q0 8 2 24v27q0 102 -51 232t-129 130q-12 0 -26 -4q6 113 -150 138 q-41 6 -76 6h-2027q-203 0 -338 -160q-121 -141 -154 -352l-143 -901q-29 -33 -49 -177q-15 -102 -15 -202zM553 389h20v-20h-20v20zM1331 389q6 14 21 21l4 2h6q35 0 35 -50q-58 0 -66 27zM1556 389h21v-20h-21v20zM180 412q2 -2 4 -2q-6 -14 -20 -21h-4q-4 -2 -6 -2h-4 q-4 2 -7 2q6 14 21 21l4 2h6h6zM1802 420v10l21 41q-4 -4 -4 27q-131 0 -377 -2l-156 -2q-76 -2 -135 -2h-86l-162 6l-229 8q-164 6 -162 6v20q0 119 74 429q53 233 53 346q0 43 -4 86l102 450h1948q0 -119 -43 -317l-35 -158q-18 -80 -27 -160v-184q0 -4 -20 -41t-20 -41 q-4 -10 -19 -131q-8 -59 -22 -176q-6 -82 -62 -123q-14 0 -41 2h-41h-41q-27 -2 -41 -2q-4 0 -20.5 -10t-20.5 -10h-14q-10 -2 -16 -3q-6 0 -17 3h-14q6 0 -28 10l-34 10q-63 0 -163 -14q-29 -4 -40.5 -5t-21.5 -22q-8 -41 -8 -90q-74 0 -74 39zM1946 410q-4 -10 -11 -11 q-6 0 -10 11q-4 10 10 10q15 0 11 -10zM1124 788q0 -25 47 -40q31 -10 58 -11l614 21q23 0 23 41t-23 41h-676q-16 0 -41 -41v-4q-2 -5 -2 -7zM2949 860q-14 -39 -47 -72q-39 -35 -76 -34v24l10 8q33 29 72 54q16 8 41 20zM184 799h21v-21h-21v21zM2662 922q10 -4 11 -11 q0 -6 -11 -10q-10 -4 -10 10q0 15 10 11zM2724 1106q16 0 16 -21q0 -20 -16 -20t-17 20q1 21 17 21zM2662 1167q4 4 11 4q10 0 10 -4q20 -31 20 -61h-41v61zM1208 1290q14 -23 62 -41h246q25 0 86 4l260 13q59 2 84 4q8 16 20 41v20q-20 20 -20 21h-656q-18 0 -44 -22 t-38 -40zM2826 1372q-2 -10 -10 -10t-10 10t10 10t10 -10z" />
<glyph unicode="9" horiz-adv-x="3092" d="M1290 317q133 -317 410 -317h696q123 0 240 90q100 76 170 197q47 203 98 510q43 258 86 514q27 125 53 250q31 147 31 251q0 201 -138 351.5t-335 150.5h-1843q-166 0 -316 -63q-184 -82 -217 -223l-102 -451v-10q-2 -6 -2 -11q0 -27 22.5 -51t22.5 -41q0 -12 -33 -36.5 t-33 -59.5q0 -33 33 -41t33 -24q0 -27 -25 -31q-45 -4 -47 -6q-14 -6 -12 -37q-66 -262 -66 -412q0 -51 4 -59l21 -21q-12 -31 -12 -63q0 -106 114 -217q143 -139 287 -140h860zM1741 532l41 226v22q0 39 -21 39h-1249q-20 0 -20 39q0 47 16 115q23 106 25 114.5t12 73.5 l61 389q8 63 29 191q-4 10 -4 18q0 25 20.5 44.5t44.5 19.5h1864l20 -21v-20l-204 -1250l-41 -40h-574l-20 20v20zM1124 1270q0 -41 23 -41h655q18 0 47 24q23 18 35 37l-41 41q-49 0 -147 4h-54h-118q-240 0 -377 -24q-23 -8 -23 -41z" />
<glyph unicode=":" horiz-adv-x="2007" d="M20 358q0 -211 142.5 -366.5t349.5 -155.5h635q150 0 297 80q168 94 194 227l164 840q-12 59 -8 96q6 55 41 133q18 39 29 99q2 14 10 59l20 103q10 59 23 124l20 125q10 53 29 162q0 -12 12 41q8 43 9 41q0 12 2 37v37q0 270 -166 397q-131 98 -393 121q-113 8 -228 6 q-117 -2 -221 -2q-346 0 -492 -166q-113 -129 -182 -491q-14 -68 -41 -205l-33 -162q-4 -18 -8 -43q-6 -45 -2 -86q2 -41 4 -76q2 -86 -43 -145q-49 -205 -133 -615q-18 -98 -31 -204v-11zM508 348l127 615q12 61 65 61h37l164 -6l229 -8q53 0 160 -6q0 -6 2 -21v-20 q0 -12 -20 -170q-27 -188 -49 -291q-33 -154 -56 -154h-659zM737 1393q-14 6 -20 20v4q-2 4 -2 6v7q2 2 2 4q10 55 28 163l74 390q16 84 62 81l594 -20q23 0 22 -41v-10q-2 -6 -2 -10q-10 -51 -29 -156l-73 -377q-6 -33 -13 -47q-10 -27 -28 -35h-144q-27 0 -94 4l-283 13 q-67 2 -94 4z" />
<glyph unicode=";" horiz-adv-x="1966" d="M18 399q0 -178 80 -301q72 -113 230 -204q37 -23 94 -112t110 -114q61 -29 205 -61h41q20 0 62 -2h61h41q283 0 430 88q178 109 225 364l164 901q-12 53 -8 115q4 82 49 111l144 712q0 12 2 35v35v31q0 295 -146 430q-121 106 -372 129q-113 8 -240 6q-115 -2 -227 -2 q-135 -2 -226 -23q-332 -76 -389 -370l-143 -737q10 -55 8 -93q-2 -51 -39 -141q-25 -57 -70 -254q-53 -219 -73 -373q-13 -94 -13 -170zM799 119v26q-2 16 -2 25q0 23 8 41l14 37q20 55 21 76q0 6 -7.5 18t-13.5 12h-287q-20 0 -20 49q0 281 102 576q14 41 21 41h614 q23 0 23 -39v-12q-2 -6 -2 -11l-144 -798l-20 -62h-23q-23 -2 -32 -2q-139 0 -252 23zM1055 1163v205q0 4 -43 12q-57 8 -70 9q-18 0 -55 2h-57.5h-57.5q-37 -2 -55 -2q-14 6 -21 20v21l21 81q4 14 31 156l43 221q8 51 28 156l82 20l553 -20q10 0 21 -21v-10q0 -74 -43 -241 l-35 -134q-18 -68 -25 -127q0 -27 -8 -73q-10 -59 -33 -60h-205l-2 -10q-4 -10 -6 -25l-6 -30q-6 -31 -22 -142q-4 -20 -5 -28z" />
<glyph unicode="?" horiz-adv-x="2519" d="M449 549q0 -356 233 -498q82 -51 199 -51h778q238 90 323 180q104 113 148 352l123 697l41 164q2 6 24 133l158 880q14 90 23 134q0 8 2 26v25q0 213 -142.5 357t-351.5 144h-1434q-147 0 -297 -176q-39 -47 -71 -90q-125 -391 -168 -686q-18 -117 -19 -215 q0 -145 29 -227q12 -37 35 -60l184 -184q23 -23 84 -33q47 -6 96 -10q129 -18 129 -82q0 -133 -63 -390t-63 -390zM1741 1147q-10 -55 -29 -162l-74 -391q-12 -61 -20 -82h-678v10q2 6 2 10q23 162 82 486q18 82 41 149q10 20 20 21h594q35 0 62 -41zM1161 1894h-608 q-20 0 -21 45v15q0 211 68 483q35 141 76 164h92q47 0 143 2h142h94h422q201 -2 418 -23q14 -6 20 -20v-20l-20 -103v-20l-218 -1106h-667q0 98 29.5 291.5t29.5 291.5z" />
<glyph unicode="A" horiz-adv-x="4300" d="M20 522q0 -188 138 -352q143 -170 334 -170h1986q43 0 118 20.5t118 20.5q63 0 188 -20.5t188 -20.5h23q-16 0 96 4l238 8q59 2 108 4l111 4q256 23 362 222q66 121 109 434q4 31 2 53q-2 23 -2 45q-4 45 20 86l123 942q0 10 2 31v33q0 262 -184 405q-164 125 -432 125 h-102q2 0 -222 -6l-448 -12q-59 -2 -88 -2q-33 -12 -49.5 -46t-30.5 -67q-10 -16 -33 -16q-18 0 -31 6q4 18 4 35q0 88 -86 88h-1966q-178 0 -301 -162q-106 -139 -129 -330zM614 164v-21h-20zM2722 215q0 4 2 8v2q10 10 41 21q0 -4 2 -10v-11q0 -33 -23 -41q-14 6 -20 21v4 q-2 4 -2 6zM2621 369q6 16 21 41l20 -21v-143h-20l-2 12q-6 16 -19 90v21zM2806 287q16 0 16 -21q0 -20 -16 -20t-17 20q1 21 17 21zM614 328v-21h-20zM2785 410h21v-21h-21v21zM532 819q29 49 33 142l2 73q0 37 6 72q4 12 35 151q6 27 6 33q14 94 33 256l17 154 q8 74 12 102l20 62q0 4 66 12q123 12 508 25q190 4 379 6h1120h188l361 -2q49 0 125 -2l147 -7q88 -4 178 -12l21 -20l-164 -1270q2 -6 2 -14q0 -23 -20.5 -45.5t-42.5 -22.5h-533v225l-20 21l-5 2h-6q-41 0 -47 -70q-8 -78 -18 -102q-16 -51 -66 -76q-37 -20 -104 -20 h-2130q-20 -8 -82 -21h-10q-6 -2 -11 -2v350zM3789 778h41q-12 -25 -41 -24v24zM3953 778q-4 -10 -21 -10q-16 0 -20 10q-4 8 20 8q25 0 21 -8zM3011 1149q0 -59 -12.5 -178t-12.5 -178q63 0 92 174q16 104 17 225v33l-3 24l-20 21h-369q-55 0 -170 -2l-1132 -15 q-117 -2 -172 -4v-4q-2 -4 -2 -6t2 -10q6 -14 20 -21l862 4q449 -2 879 -24q21 -8 21 -39zM2619 2101q0 53 43 70q0 -6 2 -21v-20q0 -59 -22 -82q-23 4 -23 53zM2150 2232q10 -4 11 -10q0 -6 -11 -10q-10 -4 -10 10t10 10zM2048 2314q16 0 16 -20t-16 -21q-16 0 -16 21 q0 20 16 20z" />
<glyph unicode="B" horiz-adv-x="4157" d="M18 543q0 -233 127 -379q133 -158 367 -164h109h170q94 0 198 -2h823h207l398 2q-6 0 589 14l148 4q37 2 82 2q164 2 196 5q113 8 197 30q219 61 283 252q27 80 26 293q0 184 56 281q0 6 61 409l25 170q10 80 36 240q0 -12 13 41q8 43 8 41q0 12 2 35v36q0 174 -123 336 q-133 176 -309 176h-1884l-21 31q4 39 4 82q0 352 -231 512q-92 61 -223 62h-656q-131 0 -239 -95q-96 -82 -148 -213q-33 -86 -43 -164l-205 -1658v-31q-2 -20 -2 -31q0 -78 45 -88l31 -6q12 -4 12 -29q0 -16 -4 -20q-96 -6 -123 -62v-22v-35q-2 -20 -2 -33v-22zM471 492 v184l-41 41q72 49 94 215l8 72q4 37 21 139l184 1376q27 41 62 41h491q4 0 12.5 -8t8.5 -12q2 -49 2 -60q0 -90 -32 -268t-32 -268v-19q8 -25 21 -51h2375l21 -31v-20l-8 -82q-12 -111 -33 -328l-41 -409q0 -18 -2 -56.5t-2 -56.5q0 -16 4 -72l266 -41q10 0 21 -20l2 -4v-6 q0 -25 -32 -38.5t-52 -13.5h-55q-39 -2 -58 -2h-57q-37 2 -55 2q-14 -16 -29 -121q-14 -84 -74 -83h-2990zM287 737h41l-21 -20zM1188 1249v-61h1761q53 0 53 61h-1814z" />
<glyph unicode="C" horiz-adv-x="3727" d="M82 451q18 -307 223 -377q96 -33 244 -35q125 2 250 2q49 -2 172 -4l1808 -33q111 -2 170 -4q336 18 479 193q113 135 146 415q12 178 51 539q27 166 53 332q31 197 31 333q0 283 -221 422q-184 117 -498 121h-111h-974q33 0 -344 6l-760 13q-94 2 -125 2h-12 q-272 0 -408 -207q-104 -162 -139 -463q-10 -160 -35 -477q-16 -127 -45 -383q-16 -147 -17 -150q-2 -72 -2 -84q0 -66 9 -90q12 -40 55 -71zM1208 522h-696q-4 0 -20.5 21.5t-20.5 29.5v19q0 209 66 584q35 195 98 585q2 39 20 92q12 10 99 11q616 0 1231 -13l1230 -28v-41 q-4 -31 -12 -96l-18 -134q-12 -68 -31 -200q-8 -59 -21 -62l-245 -20q-10 0 -183 2l-1210 16q-125 2 -184 2h-37q-88 0 -131 -33q-18 -14 -19 -38q0 -2 2 -11q6 -14 21 -20q2 0 229 -6l459 -13q61 -2 90 -2h389q45 0 314 -6l331 -8q68 -2 111 -4l43 -2l20 -21l-61 -532 q0 -20 -20 -62q-10 -20 -21 -20h-1659q-51 -20 -82 -20q-2 0 -38 11t-44 19z" />
<glyph unicode="D" horiz-adv-x="4341" d="M20 553q0 -195 130 -350q131 -162 321 -183q8 0 51 -2l119 -4q297 -14 260 -14h21q14 2 36 6l48 6q70 8 59 8q2 0 10 10.5t10 10.5q4 0 30 -10.5t32 -10.5l55 -6q63 -6 148 -12q35 -2 43 -2l2252 20q221 2 342 162q94 123 138 359q18 127 53 381q35 244 61 634 q4 63 45 201q39 127 39 201t-92 102q-59 18 -155 19v256q23 -63 61 -64h10q6 2 10 2q-31 49 -28 68v20q0 16 -29 9q-47 -16 -61 -17v17l-2 26q-2 12 -2 25v16q0 -12 12 41q8 43 8 41q0 86 -14 156q-4 18 -6 18h-164l-62 113l-2 2h-6q-37 0 -33 -43q0 -10 4.5 -30.5 t4.5 -31.5h-295v-51h204v-35q18 0 29.5 13.5t32.5 13.5q166 0 166 -123q0 -125 -35 -326q-41 -248 -47 -323q-29 -291 -84 -459l-103 -819q-2 -25 -30.5 -53.5t-50.5 -28.5h-3011q-10 0 -17.5 19.5t-11.5 43.5q-2 14 -12 39q-2 2 -29 11q-14 2 -32 10q-4 2 3 12t7 12 q14 0 10 -4q41 20 61 41q43 180 43 277q0 82 -43 112q-10 -8 -24 -35.5t-27 -27.5q-2 0 -6 2h-4q-8 14 -20 41v10q0 74 72.5 90.5t72.5 83.5q0 23 -12 41l-9 13q-4 6 -4 18l36 69q36 68 36 158q-10 0 -35 2l-51 2q-12 0 -41 2t-45 2l-41 21h-20q12 0 -41 -10 q-43 -10 -41 -11q-2 0 -10.5 10.5t-12.5 10.5t-14 2h-17q-61 0 -112 -158q-41 -127 -41 -215q0 -66 72.5 -73t72.5 -48q0 -4 -8 -12t-12 -8l-41 20q-4 0 -10 2h-13q-70 0 -102 -165q-25 -117 -25 -220q47 0 129 -22.5t123 -24.5l-20 -30h-246q-4 0 -21 -52v-20zM1352 369h20 v-21zM3686 410q10 -2 11 -11q0 -8 -11 -10q-10 -2 -10 10q0 13 10 11zM205 942l61 21v-41zM369 1067q45 0 45 -43h-90q0 43 45 43zM1229 1229l20 -21q6 -6 162 -13t248 -7q137 0 420 4l848 12q113 2 165 4q23 8 23 43q0 41 -43 39h-63h-99q-39 0 -114 2h-115h-463 q-295 0 -545 -8q-139 -6 -301 -14q-6 -4 -80 -13q-23 -4 -37 -8q-24 -8 -26 -20zM344 1462q0 -20 4 -28l21 -21l41 -61l-21 -21h-192q0 16 73 76q68 55 74 55zM532 1475q10 -4 11 -11q0 -6 -11 -10q-10 -4 -10 10q0 15 10 11zM184 1708q0 -47 125 -63q49 -6 94 -7l58 -2 q147 0 198 68q23 31 27 82l8 90q2 18 23 18h2457q20 0 41 52l-20 41l-21 20v10q0 16 11.5 36t11.5 38q0 27 -35 87t-35 95h-157q-6 0 -13.5 -16t-7.5 -25l21 -41q-4 8 -4 -57q-2 0 -38 9t-40 7q-27 -10 -32 -34.5t-7 -49.5q-14 -61 -127 -61q-20 0 -82 36t-125 36 q0 -37 25 -70h-185q-55 0 -55 113v69q-8 45 -37 45h-6l-4 -2l-123 -123q4 -29 51 -22q6 0 22.5 5t24.5 5q0 -90 -37 -90h-512q-16 25 -41 41l-4 2h-6q-16 0 -37.5 -22.5t-42.5 -22.5q-49 0 -53 23q27 16 61 55q2 16 21 67q12 25 90 52q33 10 94 30q-10 37 -80 45 q-29 2 -57 0q-33 -2 -64.5 -5t-60.5 -15q-47 -23 -47 -55q0 -2 2 -11q27 -35 62 -61q-20 -18 -84 -31q-43 -10 -80 -10q-25 74 -68 131q-16 20 -29 21v-23q0 -72 -26 -88l-164 -102h-12q0 72 37.5 91t37.5 52q0 43 -32 43q-78 0 -99 -45q-12 -33 -24 -68q-10 -20 -62 -41 q-76 -33 -157 -55q-39 -12 -58 -18q-43 63 -135 63h-49q-190 0 -259 -69.5t-69 -272.5zM1290 2028q4 -10 -3 -17.5t-17 -3.5q-4 2 -2 8q2 12 16 17q4 0 6 -4zM2867 2048q16 0 17 -20q0 -20 -17 -21q-16 0 -16 21q0 20 16 20zM2390 2109q0 -53 27 -61q27 8 26 61h-53z M3994 2150v-102h-21zM737 2171q-41 -25 -41 -72v-10q23 12 41 82zM1780 2171q0 -84 61 -84q45 0 45 35v6l-2 2l-102 61v-10q-2 -6 -2 -10zM2007 2109v-20h21v20h-21zM3004 2154q49 0 50 -34v-6l-2 -5q-6 -14 -21 -20q-27 8 -27 65zM553 2171v-45q45 0 45 45h-45zM389 2212 q-47 -18 -61 -41h20q18 8 41 20l2 4v6.5v6.5q-2 2 -2 4zM2580 2212v-21h21v21h-21zM2826 2212q-16 0 -16 -21q0 -20 16 -20t17 20q-1 21 -17 21zM799 2232q-2 4 -6 4q-14 -4 -17 -16q-2 -6 2 -8q10 -4 17.5 3t3.5 17zM1925 2273q-25 -12 -24 -41h49q0 29 -25 41zM2642 2320 q-25 0 -62 -47h62v47zM3092 2357q61 0 76 -14t15 -76q55 0 55 37v6l-2 4q-6 14 -21 21q43 20 43 61q0 35 -57 62q-49 23 -88 22h-12l-9 -2q-4 0 -29.5 -20.5t-31.5 -20.5h-16q-8 0 -27 2h-25q-16 0 -24 -33q-4 -23 -6 -24q-4 -8 -19 -17l-24 -12q-33 -18 -43 -18v-4 q-2 -4 -2 -7q0 -33 53 -32q37 0 96 32.5t98 32.5zM1311 2335q20 -20 41 -21q4 0 12 8.5t8 12.5q-20 20 -41 20q-4 0 -12 -8t-8 -12zM1638 2314q4 10 -10 10t-10 -10t10 -10t10 10zM778 2355q4 10 -10 10t-10 -10t10 -10t10 10zM1966 2376v-21h21v21h-21zM2171 2376l-21 -21 h21v21zM4137 2437q-10 4 -10 -10t10 -10t10 10t-10 10zM4116 2499q-10 4 -10 -11q0 -14 10 -10t11 10q-1 7 -11 11zM2888 2540l41 -41q27 8 26 67q-59 1 -67 -26zM4096 2601q20 -20 41 -21q4 0 12 8.5t8 12.5q-6 14 -20 20l-4 2h-6h-6l-5 -2q-14 -6 -20 -20zM2888 2724 l-21 -21h21v21zM3154 2806v-82h143q-90 106 -164 106v-24h21zM4076 2744q12 -25 40 -24v49q-28 0 -40 -25zM3787 2908q0 -33 22 -41q51 27 51 88q-73 0 -73 -47zM3926 2929q0 -25 47 -62q27 8 27 62h-74zM3092 3000q0 -49 164 -86q119 -27 217 -26q-4 0 86.5 63.5 t198.5 63.5q43 0 158 -39q20 -8 47 -8q2 0 6 2h4q33 25 41 41q4 23 -30.5 52t-51.5 29h-655q2 0 -49 -16q-25 -8 -74 -24q-62 -19 -62 -52zM4157 2929v-41h41v41h-41zM4063 3035q0 -66 53 -65q10 0 21 20l2 4v6q0 18 -31 29q-18 6 -45 6zM3256 3015v-25h-41q12 25 41 25z M3379 3011h62v-21h-62v21z" />
<glyph unicode="E" horiz-adv-x="3911" d="M20 543q0 -311 220 -443q166 -100 508 -100h276q61 0 176 2l260 2q145 0 316 2l1005 10q57 0 217 2q137 2 217 2q16 2 47 11l68 14q45 10 131 37q96 86 125 119q63 70 90 145q16 47 31 125q12 59 33 203l16 123q8 59 12 84v82q6 43 78 440q47 266 47 442q0 156 -70.5 284 t-203.5 195q-92 47 -199 52h-108h-168q-92 0 -195 2h-1393q-442 -4 -921 -23q-276 -66 -363 -250q-37 -82 -59 -229q-14 -119 -29 -238q0 -2 -6 -32l-12 -50q-8 -27 -23 -81zM512 512v41l70 543q27 217 73 542q8 61 35 181q4 23 6 24l41 21l2601 20q39 0 51.5 -6t12.5 -41 v-18q-2 -10 -2 -17l-82 -696q-8 -14 -37 -45q-33 -37 -45 -37l-307 -20h-1557q-102 0 -102 145v18q4 25 35 82q4 10 6 11h1372q43 0 43 59v12q0 41 -23 41l-1454 -20q-35 0 -51 -152q-12 -96 -12 -192q0 -12 2 -37v-29l20 -20h2048q10 0 21 -21v-8q0 -266 -64 -356 q-16 -25 -39 -25l-2150 -20zM451 1106h20v-41h-20v41zM553 1597q-2 -10 -10 -10t-11 10q-2 10 11 11q12 -1 10 -11zM3707 1618h20v-21h-20v21zM614 2007h41v-20zM389 2028q14 -6 21 -21h-82q16 8 41 21h20zM942 2028q16 0 16 -21q0 -20 -16 -20t-16 20q0 21 16 21z M1526 2030q47 0 71 -23h-143q25 23 72 23zM1843 2007q-4 -10 -10 -10t-10 10t10 10t10 -10zM2621 2028q-6 -10 -30 -11q-25 0 -31 11q-8 8 31 8q34 0 30 -8zM2703 2048q16 0 17 -20q0 -20 -17 -21q-16 0 -16 21q0 20 16 20zM3645 2048q16 0 17 -20q0 -20 -17 -21 q-16 0 -16 21q0 20 16 20z" />
<glyph unicode="F" horiz-adv-x="3911" d="M18 -147q0 -221 138 -377q141 -164 356 -164h532q8 0 35 6l68 16q115 29 143 37q80 29 123 76q68 74 109 186q20 61 55 211q0 12 8 62q2 29 12 61q6 6 52.5 13.5t70.5 7.5h1495q176 0 304 113.5t128 285.5q0 25 -12 55.5t-12 57.5q0 59 72 151q43 55 55 125q4 72 18 215 q39 205 80 410q45 244 45 414q0 88 -18 139q-4 10 -25 61q-12 29 -49 23q-8 0 -28.5 -5t-28.5 -5q0 162 -131 241q-98 57 -289 72q-80 4 -156 4q-78 -2 -137 -2h-139q-45 0 -133 2h-131h-418h-133q-86 -2 -131 -2h-185q-20 -8 -82 -21h-18q-86 0 -258 11.5t-258 11.5 q-63 0 -141 2q-307 2 -480 -80q-154 -76 -196 -231q-25 -92 -39 -234q-10 -119 -23 -237q-18 -137 -73 -461q-51 -293 -70 -461q0 -29 -2 -74q-2 -16 -2 -18h127q-14 0 -71.5 -28.5t-72.5 -43.5l-2 -12q-8 -29 -18 -90l-23 -141q-41 -231 -41 -383zM492 -176 q104 414 104 729v12q0 47 -23 47h-184l205 31l20 21q4 4 29 202q12 102 33 310v32v152q4 35 30.5 96.5t30.5 87.5q6 55 19 150q23 137 43 137h2609q0 -61 -6 -131q-2 -25 -2 -33q-12 -121 -52 -340q-8 -45 -10 -49l-20 -21q-68 0 -201 3h-201h-569h-242l-159 -3 q-61 0 -191 -4l-389 -12q-51 -2 -76 -4v-82h2007l21 -20l4 -41v-29v-23q0 -41 -19 -170q-18 -111 -45 -251q-27 -131 -43 -132h-2007l-41 -51l-82 -594l-20 -20l-37 -4q-39 -2 -90 -6l-201 -11h-18q-10 0 -33 -2h-33h-26q-10 0 -29 -2h-37q-49 5 -69 25zM3645 684 q16 0 17 -20q0 -20 -17 -21q-16 0 -16 21q0 20 16 20zM3686 1319q0 4 8.5 12t12.5 8q20 0 41 -20l2 -4v-6v-6l-2 -5q-10 -10 -41 -20q-21 21 -21 41zM3748 1524q8 -12 20 -62v-10q2 -6 2 -10h-45v10q2 6 2 10q13 50 21 62zM3789 1626q16 0 16 -20t-16 -21q-16 0 -17 21 q1 20 17 20zM3748 1851l20 -20l-20 -21v41z" />
<glyph unicode="G" horiz-adv-x="4177" d="M20 -111q0 2 25 -82q27 -94 41 -131q27 -68 70 -116q72 -80 181 -131.5t216 -51.5h2867q215 0 332 140q92 113 133 323q6 35 47 357q0 4 62 409l24 170q10 80 37 240q-6 51 -2 114q8 172 63 357q-20 20 -20 41q0 39 35 153q33 102 26 154q-25 242 -189.5 387t-403.5 145 h-2827q-209 0 -338 -180q-104 -145 -133 -372zM532 -111v103q0 160 3 135q-14 309 161 315q53 2 215 2h129l86 -2q80 14 103 82l-62 31h-532q-10 0 -41 51v21l41 184q12 53 37 236q2 31 4 51q0 12 10 92l16 149q18 178 46 342q29 174 51 174l2846 -20l2 -14v-27 q0 -88 -26 -225q-31 -174 -37 -226l-61 -593q-8 -88 -39 -322l-25 -190q-12 -102 -45 -301q-10 -47 -14 -48l-451 -20zM1268 492q0 -2 2 -9l82 -41h1556q12 0 19 27q4 20 4 37q0 39 -43 39h-1577q-16 0 -41 -41v-4q-2 -4 -2 -8zM1290 1200q2 0 217 -6l435 -12q57 -2 86 -2 h32h68q45 -2 67 -2h56q96 0 186 6l180 10q88 4 181 8q90 2 192 -2q23 4 23 51v17q-2 8 -2 14q-268 18 -537 23h-655h-174l-293 -2q-41 -4 -52 -7q-27 -8 -40 -22t-13 -35q0 -41 43 -39z" />
<glyph unicode="H" horiz-adv-x="3891" d="M18 553q0 -279 164 -412q129 -106 385 -131q113 -12 232 -12l229 2q227 0 348 94q98 76 154 242q29 113 88 340q4 14 8 26l12 31q14 35 21 35h348q6 0 21 31q2 6 10 26l10 31q12 37 23 37q0 -4 12 -68q4 -23 6 -41t0 -26q0 -6 -29 -51l-20 -33q-10 -14 -12 -19 q-20 -41 -21 -61l-4 -107q-2 -20 -2 -26h76q0 -16 -2 -43q-2 -33 -2 -43l-2 -53q-2 -25 -3 -35q10 -125 177 -213q139 -74 274 -74q33 0 84 20.5t80 20.5q25 0 58.5 -20.5t62.5 -20.5q444 0 633 115q217 129 217 436q0 57 -9 125q63 39 89 176q14 80 14 205v8q-10 20 -21 20 h-266q-20 0 -41 21v4q-2 4 -2 6t2 6v4q20 20 41 21q82 12 197 18q35 2 49 2q70 49 82 103q14 82 43 246q12 82 39 245q0 8 2 25v26q0 209 -147.5 367t-354.5 158h-27q-18 -2 -26 -2q-14 -2 -37 -4l-43 -7q-23 -4 -37 -6l-16 -4v-61q-25 63 -52 82q-96 10 -286 22h-97 q-35 0 -100 -11t-100 -11h-10q-49 12 -62 20h-491q-59 0 -82 41q6 66 6 123q0 201 -88 320q-100 127 -320 167q-145 27 -448 27h-64h-96q-61 -2 -94 -2h-64q-156 -35 -260 -135t-129 -254l-328 -2048q-2 -35 -2 -41zM3256 82q4 -10 -3 -17.5t-17 -3.5q-4 2 -2 9q2 12 16 16 q4 0 6 -4zM2634 168q49 0 49 -25q0 -31 -21 -61q-20 4 -26 43q-2 14 -2 27v16zM3090 174q0 57 72 57q0 -6 2 -24q4 -86 -41 -86q-33 0 -33 53zM2580 287q16 0 17 -21q0 -20 -17 -20q-16 0 -16 20q0 21 16 21zM2560 348q0 23 19.5 43.5t41.5 20.5h11q6 -2 10 -2 q2 -25 22.5 -65t20.5 -58v-11q-2 -6 -2 -10q-8 23 -70 33q-53 6 -53 49zM3443 475q0 -96 -52 -96v31q1 65 52 65zM3113 471h-117q-80 -2 -119 -2q-76 0 -141 2h-94q-78 0 -125 35q-18 12 -18 35q0 92 22.5 274t22.5 275v34q0 25 -2 84q-2 16 -2 21l-21 20h-14q-8 0 -27 2 h-27h-22q-51 0 -149.5 -21.5t-149.5 -21.5l-21 21q-31 20 -41 20q-76 0 -69 -129v-43q-33 0 -43 86t-51 86h-672l-131 -737l-529 -20l-41 20l-20 20v21l311 1997h385q18 33 92 33q94 0 216 -64q0 -2 2 -6v-4q0 -23 -33 -35t-33 -35v-12q2 -6 2 -10l21 -62q0 -4 2 -2v-4 q-82 0 -84 -70q-2 -23 -2 -47q0 -59 24 -73q16 -8 60 -50q-16 -31 -33 -38q-25 -4 -49 -7q-41 -8 -41 -141q0 -39 20 -39h164q10 47 25.5 65.5t58.5 18.5q37 0 123 -53t180 -53q168 0 213 53q33 39 55 215q10 -53 21 -197q4 -53 39 -65q16 -6 84 -6h174q16 0 51 2h49h33 q4 8 28.5 32.5t32.5 28.5q16 4 47 -27l35 -34h267q37 88 143 88q43 0 61 -6q-2 -6 0 -17q4 -49 21 -65q2 -2 51 -11q23 -4 51 -10q20 -10 21 -20v-328q8 -16 20 -41l2 -4v-6q0 -37 -63.5 -80t-63.5 -96q0 -4 3 -15.5t65 -103.5q12 -18 16 -23l2 -4v-6q0 -6 -39 -35l-28 -20 q-14 -10 -17 -17q-59 -98 -78 -282q-8 -80 -8 -156q0 -66 4 -135q0 -10 -15 -25.5t-26 -15.5q-10 0 -33.5 15.5t-27.5 25.5zM3256 635q0 10 21 20l4 2h6q18 0 34.5 -26.5t16.5 -46.5v-11q-6 -14 -20 -20q-62 41 -62 82zM2109 594q10 -2 11 -10q0 -8 -11 -11q-10 -2 -10 11 q0 12 10 10zM3297 840q16 0 17 -21q0 -20 -17 -20q-16 0 -16 20q0 21 16 21zM2171 860l20 21v-41zM1475 922q49 -6 49 -41h-49v41zM2191 963q10 -4 11 -11q0 -6 -11 -10q-10 -4 -10 10q0 15 10 11zM2130 1147h205v-21h-226zM2458 1167v-41h-25q0 29 25 41zM3482 1393h45 q0 -45 -45 -45v45zM3666 1413h41v-24q-29 -1 -41 24zM3502 1516l21 -21h-21v21zM3461 1638q16 0 17 -20q0 -20 -17 -21q-16 0 -16 21q0 20 16 20zM2294 1946q10 -4 10 -11q0 -6 -10 -10t-10 10q0 15 10 11zM2456 2038q0 51 30 51q115 0 154 -49q16 -20 16 -53h-178 q-22 0 -22 51zM1882 2038q0 35 43 35v-70q-43 0 -43 35zM1761 2048q-4 -10 -10 -10t-10 10t10 10t10 -10zM2744 2048q-2 -10 -10 -10t-10 10t10 10t10 -10zM3133 2171q0 -6 2 -21v-20q0 -57 -22 -62v21q6 31 20 82zM2593 2253h110q0 -43 42 -68.5t42 -54.5q0 -43 -32 -43 q-33 0 -97.5 60.5t-64.5 105.5zM1659 2232q-14 -16 -16.5 -56t-12.5 -55.5t-37 -15.5q0 25 6 72q8 55 19 55h41zM2128 2200q0 57 43 57v-107q-43 -7 -43 50zM3031 2191h41l-41 -41v41zM3092 2191q16 0 17 -20q0 -20 -17 -21q-16 0 -16 21q0 20 16 20zM2007 2294q16 0 16 -21 q0 -20 -16 -20t-16 20q0 21 16 21zM1536 2417q16 0 16 -21q0 -20 -16 -20t-16 20q0 21 16 21zM1597 2580q10 -4 11 -10q0 -6 -11 -10q-10 -4 -10 10t10 10zM1495 2683v-21h-20zM1468 2933q0 -53 -34 -78q-20 -12 -82 -29q-6 12 -6 31q0 61 84 74q20 2 38 2z" />
<glyph unicode="I" horiz-adv-x="1884" d="M563 61q31 0 68 -20q61 -31 65 -31q25 -10 62 -10q322 0 467 29q223 41 329 166q125 147 125 430v10l-20 41v4q-2 4 -2 6q0 20 31.5 52t31.5 102q0 61 -82 61h-30q-16 0 -47 2h-48h-69h-47q-29 -2 -45 -2h-21q-14 0 -45 -7t-37 -13q-29 -25 -35 -207q-6 -172 -47 -172 h-409q-23 -33 -70 -33q-43 0 -119 18q-82 23 -118 25l41 41q6 6 20 84l12 68q6 33 8 53q2 70 3 82v41q-2 27 -3 41q-29 29 -114 36q-61 4 -131 5q-131 0 -193 -37q-29 -16 -33 -45l-8 -60q-8 -63 -24 -186q-6 -43 -9 -62v-30q0 -113 54 -172q23 -23 43 -45.5t26 -59.5v-16 v-27q-2 -16 -2 -24q0 -12 2 -15q39 -61 136 -104q88 -41 167 -41q20 0 58.5 11t58.5 11zM532 123q16 0 17 -21q0 -20 -17 -20q-16 0 -16 20q0 21 16 21zM573 287q0 10 21 20q33 8 70 8q0 -39 -70 -69q-21 21 -21 41zM676 266h20v-20h-20v20zM1331 307h41v-20h-41v20z M246 328h20v-21h-20v21zM1516 512q-4 -10 -11 -10q-6 0 -10 10t10 10q15 0 11 -10zM98 594h74q0 -16 -16.5 -28.5t-32.5 -12.5q-25 0 -25 41zM297 698q35 0 35 -43h-70q0 43 35 43zM319 1049q35 -4 50 -5h22q35 0 109 25q37 10 55 21q37 16 39 36l108 717h664 q0 -104 -38 -308t-38 -308q0 -59 133 -66q33 -2 84 0q59 4 80 4h29q16 0 47 2h47h31q12 8 45 152q31 129 55 278q25 158 25 205q0 227 -144 387q-150 166 -370 166h-635q-129 0 -266 -80q-150 -88 -185 -207q-145 -502 -145 -804q0 -92 84 -117q-6 -14 -19.5 -21.5 t-29 -16.5t-33.5 -24v-4q-2 -4 -2 -6v-4l2.5 -5t195.5 -17zM432 1210q39 0 39 -43q0 -10 -20 -20q-33 -8 -68 -8q0 71 49 71zM414 1561q0 -39 -27 -70t-65 -31q0 101 92 101z" />
<glyph unicode="J" horiz-adv-x="1986" d="M20 -102q0 -346 254 -471q174 -84 566 -84q205 0 297 10q178 18 282 78q201 117 260 508l287 1914q0 174 -135 336q-141 166 -315 166h-697q-250 0 -366 -172q-90 -133 -121 -383q-10 -137 -45 -407q0 -4 -20.5 -41t-20.5 -41q-4 -14 -6 -47l-2 -27q-2 -14 -2 -20h26 l41 -3q8 -2 30.5 -4t38 -3t38 -17t22.5 -33v-6l-2 -4q-4 -4 -20.5 -10.5t-20.5 -10.5l-4 -10q-4 -6 -4 -10h78q0 -100 -66 -127q-27 -10 -61.5 -13t-67.5 -5q-43 -6 -59.5 -19.5t-20.5 -40.5l-123 -737q6 -55 -16 -135q-25 -90 -25 -131zM532 -143v20v31q-2 20 -2 31v20 q0 156 63.5 458t63.5 457q0 82 -131 89h-55v6q-2 2 -2 4q0 27 113.5 52.5t113.5 88.5v12l-12 31q-8 20 -8 31q0 2 20 31q6 12 21 30q14 33 37 193l18 143q20 156 53 238q14 41 35 41h615v-164q14 -6 20 -21l2 -4v-6q0 -16 -29 -63q-14 -23 -34 -70q-12 -115 -39 -346 q-18 -164 -37 -252q-12 -53 -27 -78l-164 -1003l-41 -21q-45 0 -133 -4h-47h-96q-228 0 -318 25zM1475 1208q10 -4 10 -10t-10 -10t-11 10q1 14 11 10zM328 1393q10 -4 10 -11q0 -6 -10 -10t-11 10q1 15 11 11zM369 1413q16 0 16 -20t-16 -21q-16 0 -17 21q1 20 17 20z M655 1475q16 0 17 -21q0 -20 -17 -20q-16 0 -16 20q0 21 16 21zM635 1495q16 0 16 -20t-16 -21q-16 0 -17 21q1 20 17 20zM573 1659q16 0 17 -21q0 -20 -17 -20q-16 0 -16 20q0 21 16 21z" />
<glyph unicode="K" horiz-adv-x="3747" d="M20 530v-18q2 -8 23 -72l12 -45q6 -20 6 -26q37 -184 193 -275q117 -70 334 -90q90 -8 182 -8q262 4 297 8q168 18 276 98q57 43 111 103q14 25 43 74t59 49h451q156 -225 295 -295q61 -33 135 -33h758q23 0 100 33q41 14 105 49q127 100 164 229q16 55 20 160 q6 113 16.5 160t44.5 86q6 29 19 102l26 154q12 80 23 153l14 103v16q0 12 2 35v35v31q0 281 -161 417q-59 49 -148 80q-37 6 -110.5 22.5t-94.5 59.5q-4 4 -10 41q-4 16 -10 41q-51 121 -174 211q-131 96 -256 96h-697q-18 -8 -90 -22q-31 -6 -57 -11l-37 -8q8 4 -47 4 q0 39 4 123q6 78 6 123q-4 168 -65 242q-53 63 -82 92q-47 49 -92 78q-94 55 -236 55h-614l-185 -41l-204 -205l-9 -32q-8 -35 -16 -80l-37 -174q-37 -199 -80 -625q-41 -412 -84 -625q-43 -160 -110 -485q-13 -87 -13 -193zM2519 748v10q0 8 -22 45q-10 16 -19 16h-1331 l-21 -20q-4 -6 -20 -62q-12 -39 -33 -180l-8 -45h-553q-18 0 -23 29q-2 10 -1 19t1 13q0 59 23 82l102 635q0 6 2 21v20q0 41 -24 64q-8 8 -60 39q4 16 19.5 20t32.5 8q43 16 71 135q12 49 21 62l123 799l41 41h512v-164l-103 -615q4 -23 2 -47q-4 -27 -8 -53l-10 -55 q-6 -29 -6 -54q0 -10 2 -32v-25l41 -41l49 -2l35 -2q16 -2 26 -2q63 0 186.5 34t186.5 34q-8 0 43 -32t119 -32h18q10 0 29 2h27h18q37 8 53 166q8 82 13 107q12 72 36 96l21 20h594l20 -20q-23 -96 -22 -215v-35q2 -25 2 -37q8 -23 51 -33q33 -8 51 -8q29 0 64 8l67 15 q104 20 125 20q29 0 32 -37t19 -47q14 0 84 -31q31 -14 39 -30v-9q0 -72 -24 -180q-33 -147 -37 -180l-62 -430q-8 -61 -20 -61h-621q0 43 13.5 128t13.5 128zM410 1372h20v-20h-20v20zM3543 1372v-20h-20zM389 1475h21q18 -8 41 -21l2 -2v-7v-7l-2 -4q-6 -14 -21 -21z M3564 1542v-88q-23 14 -41 62q0 -47 -66 -72q-51 -18 -104 -19q0 96 141 113q37 4 70 4zM3604 1495q10 -4 11 -10q0 -6 -11 -10q-10 -4 -10 10t10 10zM1739 1577q0 33 22 41q51 -27 51 -88q-73 0 -73 47zM1552 1599q2 -2 4 -2q-6 -14 -20 -20h-4q-4 -2 -6 -2h-4q-4 2 -6 2 q6 14 20 20l4 2h6h6zM1452 1661l2 -2q6 -14 21 -41q4 -8 4 -21h-127v21l10 6q45 25 72 35l4 2h7h7zM3543 1618q10 -4 10 -10t-10 -11q-10 -4 -10 11q0 14 10 10zM1659 1645v-27h-62q9 27 62 27zM1884 1638h41v-24q-29 -1 -41 24zM3297 1638q16 0 17 -20q0 -20 -17 -21 q-16 0 -16 21q0 20 16 20z" />
<glyph unicode="L" horiz-adv-x="1904" d="M18 537q0 -197 113 -357q125 -180 320 -180h716q215 0 334 176q88 129 131 383q14 127 47 383q20 96 56 291q6 47 6 88v10q0 2 -23 55q-20 45 -20 60q0 2 2 6v2q70 70 102 287q27 174 56 348q29 203 28 352q0 248 -125 373q-104 104 -311 137q-135 20 -406 21h-55h-80 q-53 -2 -80 -2h-51q-303 -51 -401 -236q-49 -90 -74 -235q-18 -123 -37 -246q-27 -137 -53 -273q-31 -162 -31 -276q0 -109 84 -109q39 0 62 43q23 -66 112 -65q39 0 52 4q6 51 53 55t90 6q31 6 67 220q4 25 54 391q29 209 43 209h583q0 -125 -36.5 -369t-36.5 -369 t166 -125q33 0 41 23h204q-23 -37 -101.5 -57.5t-102.5 -65.5q12 -23 81 -41q2 -43 -38 -43q-20 0 -37 8l-33 17q-45 23 -76 18q-139 -18 -164 -164q-4 -25 -12 -76l-61 -387q-8 -66 -29 -192q2 -12 2 -37q0 -106 -43 -106h-574q-4 0 -12 8t-8 12q-2 47 -2 57q0 131 53 384 t53 382q0 78 -38 86q-31 0 -107 13q-25 6 -90 51q-51 33 -137 33q-4 0 -17 2h-24q-35 -4 -39 -25q-45 -238 -92 -477q-54 -284 -54 -481zM266 1413q-2 -10 -10 -10t-10 10t10 10t10 -10z" />
<glyph unicode="M" horiz-adv-x="3256" d="M18 500q0 -195 148.5 -347.5t345.5 -152.5h2089q340 0 455 442q49 199 75 490q10 109 23 194q4 27 14 84l54 285q12 66 14 82l4 57v41v62q0 18 -2 53t-2 53q-39 14 -78 27q-47 18 -47 55q0 31 32.5 78t32.5 76q0 113 -186 112h-74q-117 0 -116 -88q31 0 66.5 14.5 t64.5 14.5q45 0 84 -70q33 -63 32 -108q-92 0 -81 39l4 24t-31 13h-6l-4 -2l-82 -103q43 -31 43 -92q0 -33 -39 -61q-49 -37 -66 -72q-6 -16 -20 -41l-185 -1106q-14 -82 -61 -82q-37 0 -113 2h-112h-135l-91 -2q-10 0 -51 -10t-51 -10q-18 0 -47 24q-23 18 -35 37 q20 109 55 326q8 57 9 106v25q0 78 -31 78h-8l-4 -3q-14 -6 -21 -20q-10 -35 -33 -197l-8 -49q0 2 -8 -102q-4 -39 -12 -103q-6 -37 -64.5 -77.5t-58.5 -65.5v-178q-8 0 -19.5 -3t-15.5 -3q-20 -4 -27 20q0 14 2 41v41v41q-2 27 -2 41q-8 41 -20 41h-266q-18 -29 -41 -20 q-14 2 -45 16q-37 16 -37 25v348q49 68 63 194q8 74 8 207q-63 0 -92 -106q-25 -82 -34 -322q-4 -82 -29 -211l-19 -90l-20 -20h-574q-10 0 -20 20v8q0 104 33 264l26 131q16 84 23 129l82 574l20 82l11 61q2 27 10 62q8 25 47 37q29 8 59 8q0 4 -2 8t-2 8l-20 41v4 q-2 4 -2 8q0 2 2 7v2q27 27 41 20q14 -18 41 -41h18q12 -2 19 -2h22q66 0 66 33v6l-2 4q-14 31 -74 39q-25 2 -45 2h-25q-8 41 -46 134t-56 93q-41 0 -62 -43q-16 12 -55 68q-27 35 -78 35q-57 0 -92 -41q-147 -174 -215 -328q-74 -172 -74 -379v-35q2 -25 2 -36 q45 4 45 -41q0 -18 -35.5 -34t-50.5 -69q-80 -315 -112 -637q-13 -108 -13 -194zM1884 123h41v-25q-29 0 -41 25zM2187 168q31 0 45 -25l-20 -20q-25 14 -25 45zM1966 205q10 -2 10 -10t-10 -11q-10 -2 -10 11q0 12 10 10zM2499 328q25 -16 41 -41l2 -2v-9q0 -27 -18.5 -50 t-45.5 -23h-10q-6 2 -10 2q10 78 41 123zM1147 410q2 0 6 2h4q35 0 35 -43h-45v41zM1946 1167q-16 0 -17 -20q0 -20 17 -21q16 0 16 21q0 20 -16 20zM3043 1475h49v-41q-49 6 -49 41zM676 1907h20q14 -2 21 -2q-70 -86 -137 -86q0 88 96 88zM305 1874v6q2 2 2 4 q14 -6 21 -20l2 -4v-6.5v-4.5q-2 -4 -2 -6q-14 6 -21 21v4q-2 4 -2 6zM2990 1864q8 23 43 22q41 0 39 -43h-14q-10 -2 -17 -2q-47 0 -51 23zM717 1884q16 0 16 -20t-16 -21q-16 0 -17 21q1 20 17 20zM1083 1894q0 -2 2 -10q20 -20 21 -20h430q14 23 61 41q-8 25 -32 20 l-41 -8q0 18 -6.5 53t-6.5 51q0 49 58 50q43 0 77.5 -30t34.5 -73q0 -20 -13 -45t-13 -45h35q115 0 114 43q0 18 -10 53t-10 54h67q0 37 -27.5 80.5t-62.5 43.5h-10q-6 -2 -10 -2q23 -45 22 -84q0 -39 -32 -38h-11q-25 8 -51 20v123q-31 8 -82 75.5t-71 67.5h-328 q-10 -14 -29 -41l-18 -24q-10 -12 -15 -17q-14 -18 -86 -39q-59 -18 -59 -53q0 -33 43 -33q18 0 27.5 12.5t23.5 12.5h6l4 -2l21 -21v-184q-14 -6 -21 -20v-4q-2 -5 -2 -7zM2005 1894q0 -33 43 -32h10q6 2 10 2q0 31 -20 61l-2 2h-7h-7l-4 -2q-14 -6 -21 -20v-4q-2 -5 -2 -7 zM2435 1956q0 -98 74 -98q18 0 31 6q-8 4 -16.5 27.5t-4.5 33.5q6 16 35 37q23 16 45 33q14 12 22 33q6 -14 70 -52q55 -33 82 -32q49 0 74 22q-35 88 -105 111q-37 2 -112 12q-51 6 -52 51q0 61 64 154h-31q-113 0 -155 -31q-20 -14 -21 -41q0 -25 34 -59.5t34 -73.5 q0 -43 -34 -73.5t-34 -59.5zM2621 1905q20 -43 62 -43q41 0 41 43l-21 20q-41 20 -41 21q-8 -2 -23.5 -17.5t-17.5 -23.5zM2130 1905q-16 0 -16 -21q0 -20 16 -20t16 20q0 21 -16 21zM532 1987h27q0 -53 -27 -62v62zM2230 1976q0 -33 45 -32h23q33 0 45 7t12 36q0 23 -49 22 h-12q-64 0 -64 -33zM410 2058v10q2 6 20 41l4 2h6q53 0 54 -73v-15q-2 -10 -2 -16q-25 4 -72 31q-10 8 -10 20zM1919 2079q0 -37 27.5 -59.5t66.5 -22.5q0 37 -27.5 59.5t-66.5 22.5zM608 2050q0 6 6 18q27 35 62 62q6 -4 18 -14l49 -50l15 -18q8 -16 8 -25q-27 0 -79 13.5 t-79 13.5zM2621 2089q16 0 17 -21q0 -20 -17 -20q-16 0 -16 20q0 21 16 21zM573 2109q16 0 17 -20q0 -20 -17 -21q-16 0 -16 21q0 20 16 20zM2212 2130v-41h20v41h-20zM2267 2224q0 -35 26.5 -65.5t61.5 -30.5q39 0 62 43q-44 53 -150 53zM2703 2171q-16 0 -16 -21 q0 -20 16 -20t17 20q-1 21 -17 21zM922 2220q-35 0 -41 -49h41v49zM1823 2316q-49 0 -66 -71q-4 -18 -4 -33h143q1 104 -73 104zM874 2318q0 -70 54 -69q-1 69 -54 69zM2703 2273v-20h41v20h-41z" />
<glyph unicode="N" horiz-adv-x="3891" d="M20 532q0 -209 143.5 -370.5t348.5 -161.5h614q307 0 435 410q41 135 57 307l20 20h410l20 -20v-21q0 20 -10 -92l-10 -92q8 -176 117 -332q121 -180 293 -180h798q180 0 301 162q98 133 129 330l185 1187q0 10 2 29v31q0 293 -137 428q-115 113 -353 139 q-106 12 -227 12l-305 -2h-86q-57 -2 -86 -2h-58l-41 -20h-20q-49 12 -61 20h-308q-49 -68 -102 -82v-164q0 -23 -41 -22q-39 0 -39 37t-19.5 53t-37.5 31q-27 20 -27 33v12q0 -6 12 31q8 31 9 30q0 23 -50 23h-12q-6 0 -41 -2q-4 0 -20.5 -10.5t-20.5 -10.5q-10 0 -41 19 l-24 12q-12 6 -17 10h-655l-41 -20h-10q-16 0 -40 11t-42 11h-14q-10 -2 -17 -2q0 -61 -20 -123q-6 -14 -21 -20q-53 -6 -84 47q-25 43 -24 100q-86 0 -149.5 -47t-162.5 -47v-78q-53 0 -94 -33.5t-41 -84.5q0 -20 12.5 -46t12.5 -49v-16l-2 -12l-31 -31l-31 -31 q-8 -20 -4 -41q4 -20 4 -39q0 -39 -61 -43zM510 541v16q2 10 2 16l102 635q-4 23 -4 47q0 49 25 156l24 107q12 57 17 100q2 14 0 41q-2 33 -2 41v51q0 35 18 55q45 57 86 78q6 0 17 2h14q20 0 51 -11t51 -11h11q16 10 41 22q33 18 41 19q8 0 47 -25q31 -23 34 -37h717 q49 23 82 23q20 0 46 -12.5t46 -12.5q23 0 47.5 12.5t44.5 12.5q49 0 103 -6l211 -29q51 -8 102 -8h56q-2 0 83 6l101 6q49 2 86 6l37 2l41 21q4 41 -58 55q-35 8 -49 14q-27 12 -37 33l21 21l123 -41q49 -12 108 -45q12 -23 56 -37h10q33 0 86 14q78 23 88 25q29 6 61 2 q-10 35 -41 102q29 4 95 25q59 20 96 20q0 -25 -56.5 -100.5t-56.5 -87.5q0 -25 34 -40.5t34 -39.5v-12q-2 -6 -2 -11l-195 -1237q-8 -31 -10 -32h-660q0 113 44 334t44 333q0 4 3 15q4 55 -25 55h-1389l-106 -676q0 -10 -21 -41l-20 -20h-533q-22 0 -22 49zM369 1843 l82 164q8 -29 51 -98q33 -53 33 -115q-86 0 -166 49zM3498 1921q70 0 70 -119h-25l-4 10q-23 39 -37 72q-2 6 -4 37zM635 1905h20v-21h-20v21zM2458 1925l20 -20h-41zM2294 2007q-4 0 -10 2h-11q-18 0 -36.5 -11t-34.5 -11h-11l-20 20q0 31 20 61q8 0 27 3h25q82 0 133 -43 q0 -2 2 -7v-4v-6l-2 -4q-4 -6 -15 -16l-49 -49q-12 -12 -18 -17v82zM2007 1987q25 -12 25 -41h-50q0 29 25 41zM2560 1966q16 0 16 -20t-16 -21q-16 0 -16 21q0 20 16 20zM3049 2017q0 27 41 31q16 2 31 2h23q41 0 47 -2q27 -6 26 -33v-4l-2 -4l-123 -61h21q-35 27 -61 61v4 q-3 4 -3 6zM3625 2007l41 -41q-12 -25 -41 -24v65zM920 2048v10q2 6 2 10l82 -81q-6 -14 -21 -21h-4q-4 -2 -6 -2q-23 0 -39 33q-14 24 -14 51zM2540 1987q16 0 16 -21q0 -20 -16 -20t-17 20q1 21 17 21zM2519 2007q16 0 16 -20t-16 -21q-16 0 -16 21q0 20 16 20zM799 2028 h41q-12 -25 -41 -25v25zM2499 2089l20 20l4 2h6q37 0 37 -75q-67 0 -67 53zM2642 2109h82q-10 -29 -66 -28h-16v28zM594 2130q16 0 16 -21q0 -20 -16 -20t-16 20q0 21 16 21zM2308 2198q74 0 74 -74q-74 0 -74 74zM3564 2150h20v-20h-20v20zM614 2191h21l-21 -20v20z M2437 2212q16 0 17 -21q0 -20 -17 -20q-16 0 -16 20q0 21 16 21zM3400 2212q16 0 16 -21q0 -20 -16 -20t-17 20q1 21 17 21zM2703 2232h21l-21 -20v20zM3031 2232q-6 -14 -20 -20h-5q-4 -2 -6 -2h-4q-4 2 -6 2z" />
<glyph unicode="O" horiz-adv-x="4157" d="M471 20q92 0 248 -2q182 -2 250 -2q166 -2 360 -4l391 -2q199 -2 394 -4l360 -2q166 -2 297 -2l446 -2q440 0 619 168q78 74 96 201l205 1392q0 6 2 19v20q0 279 -207 410q-168 106 -471 106h-33h-49q-35 -2 -51 -2h-31l-82 -41q4 4 -24 4q0 16 6 21q4 2 -23 16 q-14 0 -41 2h-42h-46l-34 -2q-8 0 -42 -10t-40 -10q-20 0 -41 20q-117 -2 -230 -2q-115 0 -227 2l-897 19q-223 4 -451 4q-397 0 -543.5 -46t-217.5 -165q-53 -86 -89 -258q-20 -106 -49 -291q-59 -313 -164 -942v-35q-2 -25 -2 -37v-35q2 -25 2 -36q10 -4 37 -109 q47 -195 228 -297q73 -43 186 -66zM512 512v31q-2 20 -2 30v31q2 20 3 32.5t7 55.5l33 219q10 74 33 222l8 55q0 -4 24 174q20 168 48 297q10 55 18 86q18 74 33 78q123 20 219 20h231h121l473 -6q145 -2 297 -4l297 -2q145 -2 266 -4l881 -4q61 0 143 -21q8 -20 21 -82v-20 q-6 -16 -21 -41l-184 -1147l-61 -20h-58q-188 0 -442 -3q-86 -2 -162 -2h-125l-1048 2q-482 0 -1053 23zM328 532q-2 -10 -11 -10q-8 0 -10 10t10 11q13 -1 11 -11zM1186 1206q0 -39 43 -39h1679q8 0 15.5 16.5t5.5 24.5t-17.5 24.5t-23.5 16.5h-1680q-22 0 -22 -43z M1843 1987q16 0 17 -21q0 -20 -17 -20q-16 0 -16 20q0 21 16 21zM2621 1987l21 20l20 -20l-20 -21zM1726 2068h97v-86q-35 0 -66 25.5t-31 60.5zM3318 2068q25 -12 24 -40h-49q0 28 25 40zM1903 2079q0 2 2 6v4q6 14 20 20l4 2h6h7l4 -2l20 -20q0 -20 -20 -41h-2 q-4 -2 -9 -2q-2 0 -6 2h-4q-14 6 -20 20v5q-2 4 -2 6zM2437 2089q4 0 10 2h11q33 0 41 -23q-8 -27 -62 -26v47zM1188 2089q16 0 16 -21q0 -20 -16 -20t-17 20q1 21 17 21zM3174 2089q10 -4 11 -10q0 -6 -11 -11q-10 -4 -10 11q0 14 10 10zM3420 2089q10 -4 10 -10t-10 -11 q-10 -4 -10 11q0 14 10 10zM2699 2132q2 -2 4 -2q-6 -14 -20 -21h-4q-4 -2 -6 -2h-4q-4 2 -7 2q6 14 21 21l4 2h6h6zM1597 2150q16 0 17 -20q0 -20 -17 -21q-16 0 -16 21q0 20 16 20zM1180 2191h49v-41q-49 6 -49 41zM1434 2234q35 0 61 -22q10 -37 -45 -49q-23 -6 -41 -6 l-23 -3q1 80 48 80z" />
<glyph unicode="P" horiz-adv-x="4444" d="M16 -119q0 -465 496 -536h57q29 0 86 -2h86h58q328 0 456.5 38.5t206.5 139.5q61 80 109 225q33 106 67 254l21 31h2109q307 0 410 428q25 109 41 196q25 127 53 328l8 61q2 70 2 82v41q-2 27 -2 41q-27 35 -61 62l-4 2h-6q-33 0 -52 -64q-31 45 -163 103v20q6 -2 20 0 q55 2 82 21l4 10q2 10 6 24l6 27q2 12 4 21v20q-6 0 -30 12l-53 25q-72 33 -80 45q-4 6 8 28.5t12 28.5q29 0 79 -50t75 -50q2 0 6 2h4q29 12 53.5 35.5t46.5 46.5q10 10 23 10v-92h20l103 102q4 4 18 93l23 133q0 10 2 30v33q0 178 -121 307q-113 119 -291 162 q-109 0 -295 2q-215 2 -293 4q-199 0 -428 2l-1364 11q-199 0 -352 2h-397q-356 0 -490 -244q-104 -184 -108 -576l-21 -40l-246 -1536q0 -16 -2 -49.5t-2 -49.5zM532 -164q-29 6 -22 45q2 29 2 58q90 623 287 1863q12 68 41 82l127 10q133 10 301 11q109 0 323.5 -10.5 t323.5 -10.5q98 0 292.5 10.5t293.5 10.5h18q-12 0 41 -11q43 -10 41 -10q53 0 172 37q23 6 53 6q35 0 62 -22q37 0 106 2h109h108q72 -2 107 -2q12 0 80.5 -10.5t83.5 -10.5q-2 0 41 10q53 10 41 11q35 2 40 2q6 0 41 -2q4 0 30 -10.5t32 -10.5q4 0 20.5 10.5t20.5 10.5 t14 2h17q63 0 109 -37t46 -101q0 -35 -49 -127q-12 -18 -14 -45q-23 -215 -23 -225q0 -23 12.5 -61.5t12.5 -61.5q0 -27 -30 -41t-34 -41l-106 -632l-344 -23h-2130q-16 0 -41 -156q-12 -100 -39 -301q-10 -74 -16 -104q-14 -78 -28.5 -96.5t-103.5 -32.5q-51 -6 -120 -6 q-8 0 -43 10t-39 10h-66q-45 2 -67 2q-23 0 -68 -2h-66zM4178 1208q16 0 16 -20t-16 -21q-16 0 -16 21q0 20 16 20zM1329 1247q0 -39 64 -39h1044l21 21q-18 27 -62.5 44t-81.5 17h-962q-23 0 -23 -43zM2953 1270h-413q-16 0 -23 -29q-4 -20 -4 -33h375q23 0 44 19.5 t21 42.5zM3031 1229v-21h164v66q-33 0 -82 -19q-64 -22 -82 -26zM3973 1229q2 0 6 2h4h7l4 -2q14 -6 20 -21h-41v21zM553 1270q8 27 61 26v-53q-53 0 -61 27zM512 1413q10 -4 10 -10t-10 -10t-10 10t10 10zM3953 1413q4 -10 -3.5 -17t-17.5 -3q-4 2 -2 8q2 12 16 16 q5 0 7 -4zM4196 1425q0 -47 80 -41h25v74q-59 0 -90 -14q-15 -7 -15 -19zM635 1618q4 0 10 2h10q33 0 41 -23h-10q-6 -2 -10 -2q-33 0 -41 23zM4096 1618h41v-21h-41v21zM512 1864h10q53 0 92 -48.5t86 -48.5q0 -23 -38 -28q-16 -2 -31 -2h-17q-35 0 -41 4zM4096 1823 q2 0 6 2h4q35 0 35 -43h-45v41zM4178 1802h20v-20h-20v20zM4280 1823q12 8 62 20h12q20 0 29 -28q4 -20 4 -46q-87 1 -107 54zM4260 1843q-2 -10 -10 -10t-11 10q-2 10 11 10q12 0 10 -10zM4219 1864q-2 -10 -10 -11q-8 0 -11 11q-2 10 11 10q12 0 10 -10zM4338 1931 q57 0 65 -26q-6 -14 -20 -21h-4q-4 -2 -7 -2q-34 0 -34 49zM3994 1925l20 -20h-20v20z" />
<glyph unicode="Q" horiz-adv-x="4280" d="M2376 12q-14 -233 84 -415q115 -219 346 -220h655q238 0 363 201q82 137 129 414q12 72 24 162l58 411q51 356 163 1065q6 29 37 107q27 66 27 108q0 199 -133 357q-141 166 -340 165h-3134l-225 -40l-20 -21q-147 -178 -174 -338q-12 -63 -13 -139q0 -45 63.5 -98.5 t63.5 -100.5q0 -43 -33 -43q-20 0 -36.5 39t-38.5 39q0 -76 -31 -100q-39 -29 -47 -78l-144 -860v-29q-2 -20 -2 -31q0 -195 127 -352q135 -172 326 -172h1884zM2865 -82v16q2 10 2 17q4 41 23 164l49 325q6 43 10 64l-20 20h-2397q-16 0 -22 35q-2 12 -1 23.5t1 16.5v24 q2 16 2 24l123 768q0 18 -22.5 55t-39.5 37h-172q0 35 50 41q12 0 34 2h37.5h36.5q23 -2 35 -2q53 27 65 138q16 150 33 188q39 86 152 86q31 0 60.5 -33t56.5 -33h12q6 2 10 2l82 21h10q31 0 86.5 -11.5t87.5 -11.5h27q10 0 31 2h30h15q6 0 39.5 10.5t42.5 10.5l41 -21h10 q20 0 45 39q10 18 26 43l5 2h6h6l4 -2q8 -16 20 -41q6 2 23 2h76q20 0 25 -1t41 -21.5t40 -20.5l34 10q34 11 28 11h20q27 -10 82 -31h1761l21 -31v-20l-287 -1884q-6 -20 -20 -62q-10 -20 -21 -20h-532q-23 0 -23 49zM1206 1262q0 -23 20.5 -42.5t43.5 -19.5h1782 q23 0 22 62q0 41 -22 41h-1823q-23 0 -23 -41zM389 1712q4 23 66 23q70 0 98 -64q-6 -12 -21 -20q-35 -27 -40 -21zM410 1937v48q49 0 92 -25q51 -29 51 -74v-10q-6 -14 -21 -21h-4q-4 -2 -8 -2q-2 0 -4 2h-4q-4 4 -10 33q-2 10 -10 29q-41 20 -82 20zM1331 2019 q16 0 17 -20q0 -20 -17 -21q-16 0 -16 21q0 20 16 20z" />
<glyph unicode="R" horiz-adv-x="3850" d="M18 535q0 -244 129 -373q104 -104 316 -142q129 -23 397 -22h58h86q57 2 86 2h57q233 31 389 205q49 55 100 268q47 193 43 193h594q55 0 58.5 87t44.5 87q76 0 96 -82q2 -25 6 -47q6 -35 21 -35h737q231 0 354 137q94 104 141 324q25 176 86 532q14 76 15 156 q0 86 -39 172q-61 139 -66.5 155.5t-3.5 28.5t4 21q4 14 -20 30q-33 16 -68 34t-55 48l-2918 -2q-25 -4 -72 -18q-12 -4 -76 -41l-67 -41q-2 0 -41 20q-18 10 -41 21q-4 0 -11 2h-10q-35 0 -51 -98q-8 -51 -31 -150q-20 -57 -20 -61l-226 -1352v-29q-2 -20 -2 -30zM510 590 q2 16 2 24l123 758q-4 16 16 139q4 20 41 213q12 68 25 109h1700q18 25 69 43q20 6 41 8q20 2 33 0q6 0 35 -22q20 -16 26 -29h717l21 -31q0 -8 -15 -123q-8 -61 -26 -184q-10 -61 -35 -184l-16 -84q-8 -35 -11 -39l-20 -31h-717q-31 0 -43 -96q-4 -51 -18 -119 q-6 -14 -21 -20q-55 35 -57 104q-2 23 3 62.5t5 58.5h-1098q-14 0 -35 -45q-6 -14 -6 -17l-30 -251q-16 -137 -52 -261q-6 -20 -20 -61q-20 -20 -21 -20h-594q-16 0 -22 34q-2 12 -1 23.5t1 17v23.5zM2580 1946q16 0 17 -21q0 -20 -17 -20q-16 0 -16 20q0 21 16 21z" />
<glyph unicode="S" horiz-adv-x="4034" d="M451 20q98 0 266 -2q195 -2 266 -2q700 -4 1231 -10q233 -2 704 -4l324 -2q342 0 479 158q109 125 170 497q41 229 82 457q43 268 43 463q0 92 -145 92v-84q-45 0 -49 2q-14 6 -15 45q0 31 42 54.5t42 46.5v10q-12 49 -20 61h10q23 0 59.5 -12t59.5 -12q0 55 -6 86 q0 4 -10.5 20.5t-10.5 20.5q0 2 21 30q6 12 20 31v10q0 145 -113 230q-90 66 -247 92q-106 16 -254 16h-2888q-68 -78 -156 -157.5t-114 -174.5q-18 -68 -19 -204q0 -33 22.5 -44.5t22.5 -33.5q-23 -39 -48 -83t-56 -122l-144 -922v-14q-2 -10 -2 -16q0 -205 115 -350 q121 -153 318 -173zM532 512q-20 8 -20 39v22q8 57 25 175l12 79l4 33l20 31h2233q14 0 20 31q2 10 2 20v14q0 37 -24 45q-6 2 -60 3h-2089q-43 0 -53 8t-10 47q0 41 11 121t11 120v52q-37 10 -45 12q-29 10 -37 29q6 10 21 16l27 12q16 8 34 33v21l-2 30q-2 6 -4 22.5 t-2 26.5q-53 0 -86 -34q-10 -12 -28 -25h-5q-4 -2 -8 -2q-2 0 -4 2h-4l-82 164h31q20 -2 31 -2h30q20 2 31 2q25 2 23 47q-2 16 0 33q0 23 57 35q113 23 125 69q2 4 -9.5 20.5t-11.5 20.5v14q-2 10 -2 17q0 41 35 61q8 6 70 31q4 0 12 -8t8 -12q0 -10 2 -31v-30.5v-31.5 q-2 -20 -2 -30q27 23 62 22q25 0 49 -22.5t43 -22.5q16 0 53 37q18 18 59 47q20 4 58 10q45 10 45 41v11l-21 61v12q0 51 62 51h10q6 -2 10 -2q-20 -51 -20 -81q0 -49 45 -50q0 -2 -10 -28q-10 -16 -27 -49l-8 -17q41 -66 184 -65q39 0 105.5 23.5t105.5 23.5 q43 0 125 -22.5t125 -22.5q33 0 61 8l115 29q29 6 61 6q33 0 60 -2l55 -4q82 -6 144 -7q0 23 -19.5 49.5t-36.5 51.5q-10 16 -10 39q41 0 72 -35q39 -43 61 -51q4 -2 19 -2q10 0 32 2h31h21q33 -4 68.5 -44t88.5 -40q33 0 76 32.5t72 32.5q20 0 47.5 -11t46.5 -11 q12 0 74 37q12 6 28 6t129 -49q59 -27 82 -35q51 -18 86 -21q23 8 23 41q0 39 -64 62q-4 186 146 186q43 0 51 -86q0 -49 8 -121q8 -29 59 -84q43 -45 43 -90q0 -16 -11 -35.5t-11 -38.5q0 -16 22.5 -35.5t22.5 -33.5v-6l-2 -5l-21 -20v-4q-2 -4 -2 -6t2 -10l62 -62l2 -4v-6 q0 -35 -53.5 -74t-91.5 -39h-140q-90 0 -205 2h-798h-230q-154 -2 -229 -2h-139q-176 0 -459 -14l-115 -6q-14 -6 -20 -21v-4q-2 -4 -2 -6t2 -10q14 -31 90 -39q27 -4 49 -2h25h2109q23 0 23 -49v-17q-2 -10 -2 -16q-8 -61 -23.5 -187t-24.5 -188l-16 -119q-8 -53 -12 -86 l-6 -35l-21 -20q-2 -2 -139 -6q-63 -2 -141 -4l-310 -8q-74 -2 -127 -2h-737q-53 0 -162 2l-1069 16q-111 2 -162 2zM3830 1475q16 0 16 -21q0 -20 -16 -20t-17 20q1 21 17 21zM3686 1720v-41h-49q0 35 49 41zM3830 1843q-2 -10 -10 -10t-11 10q-2 10 11 10q12 0 10 -10z M3092 1946q8 2 23.5 17t17.5 24l-20 41q-20 20 -21 20q0 63 93 63h16q8 -2 14 -2q-43 -18 -43 -71q0 -20 22.5 -46t22.5 -46q0 -43 -43 -43q-39 0 -82 43zM1413 1987q4 39 40 80.5t73 41.5q33 0 33 -55v-14l-3 -12l-102 -103h-4q-4 -2 -6 -2t-6 2h-4q-29 37 -21 62z M3686 1946q16 0 17 -21q0 -20 -17 -20q-16 0 -16 20q0 21 16 21zM2052 2116q53 0 118.5 -65.5t65.5 -121.5q-12 0 -98 86.5t-86 100.5zM3666 1966q16 0 16 -20t-16 -21q-16 0 -16 21q0 20 16 20zM3764 2052q80 0 148 -86q-6 -14 -21 -20h-4q-4 -2 -6 -2q-47 0 -82 30.5 t-35 77.5zM1679 2007l21 -20q-14 -25 -45 -25q-1 31 24 45zM922 2007h61v-20h-61v20zM2642 2089q8 4 31 4t45 -22q16 -20 35 -41q12 -14 32 -23q-6 -14 -20 -20h-10q-97 0 -113 102zM328 2048q10 -4 10 -10t-10 -10t-11 10q1 14 11 10zM2806 2068q20 43 61 43 q27 0 44.5 -23.5t17.5 -49.5v-10q-12 12 -31 14l-39 2q-23 0 -33 4q-16 4 -20 20zM1720 2109q16 0 17 -20q0 -20 -17 -21q-16 0 -16 21q0 20 16 20zM1700 2130q16 0 16 -21q0 -20 -16 -20t-17 20q1 21 17 21zM1905 2130q16 0 16 -21q0 -20 -16 -20t-17 20q1 21 17 21z" />
<glyph unicode="T" horiz-adv-x="4300" d="M328 205q8 -70 94 -138.5t153 -68.5q39 0 60 43l41 -41h1720q20 8 82 20h21q31 -6 81 -20h72q37 0 109 -2h106h72q98 0 211 -2q250 -4 452 20q111 12 207 45q23 31 111 103q68 57 94 123q29 74 53 153q6 25 9 31q4 18 10 61l10 97q8 74 27 221q14 113 34 133q2 10 41 242 q25 147 25 243q0 35 -4 68q31 10 51 168q10 94 10 184q0 147 -82 242q-43 51 -88 92q-12 10 -14 10h-41v-61l-82 41v4q-2 2 -2 4t2 8v4l21 41l2 4v7.5v7.5l-2 2q-12 12 -41 20q-53 12 -158 37q-20 4 -27 4h-1843l-20 21q4 35 4 71q0 152 -62 283q-63 141 -182 221 q-90 59 -211 60h-676q-188 0 -311 -150q-104 -127 -139 -321q-4 -18 -37 -228l-51 -321q-12 -78 -21 -140l-14 -90q2 -25 0 -61q-2 -55 -15 -139l-6 -45l-18 -113q-12 -78 -29 -174l-117 -697v-20q-2 -14 -2 -20q0 -61 23 -156q29 -131 82 -131h205zM635 123q16 0 16 -21 q0 -20 -16 -20t-17 20q1 21 17 21zM983 123q16 0 16 -21q0 -20 -16 -20t-16 20q0 21 16 21zM1761 164q16 0 17 -21q0 -20 -17 -20q-16 0 -16 20q0 21 16 21zM1802 164q16 0 17 -21q0 -20 -17 -20q-16 0 -16 20q0 21 16 21zM942 205q16 0 16 -21q0 -20 -16 -20t-16 20 q0 21 16 21zM1208 225v-20h-20zM2314 205q-4 -10 -20 -10t-21 10q-4 8 21 8q24 0 20 -8zM553 799l184 1208q0 4 2 14v17q0 20 -11 52t-11 52v8q16 25 41 41l65 349h549q43 0 43 -56v-20q0 -201 -22 -334q-4 -18 -37 -109q-27 -74 -27 -118q0 -39 23 -39h2437v-308 q-37 -23 -60 -165q-20 -131 -43 -131h-2437q-4 0 -20 -52v-20q20 -20 20 -21h2417q14 0 20 -37q2 -14 2 -28v-17q0 -4 -2 -41q-16 -92 -47 -309q-10 -59 -28 -174q-4 -27 -7 -29l-40 -40h-3056q0 160 45 307zM160 678q2 -2 4 -2l-41 -21q6 14 20 21l4 2h6.5h6.5zM3912 696 q0 4 8 12.5t12 8.5q49 0 49 -47q-61 -1 -69 26zM4035 922q10 -4 10 -11q0 -6 -10 -10t-11 10q1 15 11 11zM205 1393h41v-21h-41v21zM512 1618q16 0 16 -21q0 -20 -16 -20t-16 20q0 21 16 21zM1638 2212q4 0 11 2h10q18 0 36.5 -11.5t35.5 -11.5h10q-6 0 31 13q31 8 30 8 q55 0 62 -72h-144q-4 -76 -82 -76v148zM1905 2130q2 0 6 2h4q35 0 35 -43h-45v41zM2189 2120q0 33 47 45q35 8 72 8q72 0 72 -88q-25 0 -54.5 13t-52.5 13h-12l-8 -2l-41 -20l-21 20v5q-2 4 -2 6zM426 2154q49 0 49 -49q-49 0 -49 49zM2601 2130q-4 -10 -10 -10t-11 10 q-4 10 11 10q14 0 10 -10zM3213 2181q0 16 23.5 33.5t40.5 17.5q10 0 41 -20q20 -20 20 -21q0 -23 -19.5 -43t-41.5 -20q-64 0 -64 53zM2048 2171l20 -21h-40zM1495 2191q2 0 6 2h4h6l5 -2q14 -6 20 -20h-41v20zM3727 2202q0 76 39 75q66 0 66 -65q0 -43 -53 -43 q-52 0 -52 33zM3932 2191q16 0 17 -20q0 -20 -17 -21q-16 0 -16 21q0 20 16 20zM2478 2212h21v-21h-21v21zM3031 2212q20 20 41 20q4 0 12 -8t8 -12q-6 -14 -20 -21h-4q-4 -2 -6 -2t-6 2h-4q-15 7 -21 21zM1882 2243q0 33 64 32q43 0 43 -34v-5l-2 -4q-31 -20 -62 -20 q-20 0 -41 20v4q-2 5 -2 7zM2396 2232q10 -4 10 -10t-10 -10t-10 10t10 10zM2929 2232q2 0 6 2h4t13 -4t18 -18h-41v20zM3574 2275h26q16 -2 25 -2q-61 -72 -129 -71q0 49 14.5 61t63.5 12zM2724 2253h20v-21zM3359 2294q2 0 6 2h4h6l4 -2q14 -6 21 -21q-12 -25 -41 -24v45z M1720 2314q16 0 17 -20q0 -20 -17 -21q-16 0 -16 21q0 20 16 20z" />
<glyph unicode="U" horiz-adv-x="3850" d="M18 504q0 -186 109 -336q121 -168 303 -168h2703q233 0 363 137q100 104 151 322q14 66 60 381l123 878q0 10 2 29v27v18q0 293 -170 408q-143 96 -457 96q-55 0 -139 2q-362 8 -553 -66.5t-219 -224.5l-82 -430q-6 -33 -119 -39q-45 -4 -88 -4h-61q-135 0 -203 22 q-4 160 -12 234q-14 127 -48 227q-90 256 -350 256h-696q-213 0 -318 -194q-55 -104 -112 -379q-113 -532 -164 -1065q-23 -37 -23 -131zM901 287h369v-21h-348zM1454 287h246l20 -21h-245zM1843 287h62q-6 -14 -21 -21h-4q-4 -2 -6 -2t-6 2h-4q-15 7 -21 21zM2089 287 q23 23 92 22q6 0 17 2q51 4 55 -24q-23 -23 -82 -23t-82 23zM2335 307q16 0 16 -20t-16 -21q-16 0 -17 21q1 20 17 20zM2580 287q-4 -10 -20 -11q-16 0 -20 11q-4 8 20 8t20 -8zM2724 307h41q12 0 100 -14q16 -4 23 -6h-164v20zM3052 307l61 -20h-61v20zM3215 307 q10 -2 11 -10q0 -8 -11 -10q-10 -2 -10 10t10 10zM3318 307h61v-20h-61v20zM532 758l123 962q0 10 20.5 66.5t41.5 56.5l532 -20q41 -2 41 -60q0 -131 -39 -319q-31 -160 -63 -318v-20q6 -14 20 -21h84h127q82 -2 125 -2h193q43 0 127 2h127h57q43 0 109 5l129 6 q104 4 151 10l21 41h133l112 655l21 21l45 4q45 2 108 6l236 10h16q12 0 33 2h35h29q20 0 43 2q82 2 110 -45q0 -12 2 -37v-36v-39l-2 -31q-6 -37 -49 -299q-6 -31 -12 -70l-21 -184q-18 -172 -49 -350q-49 -283 -135 -285l-504 -8q-170 -4 -366 -6l-1166 -13 q-170 -2 -301 -2l-305 -2q0 115 37 246q10 41 24 72zM266 696q20 -20 21 -41q0 -10 -21 -20h-4q-4 -2 -6 -2h-4q-4 2 -6 2zM3604 655q4 -10 -3 -17t-17 -3q-4 2 -2 8q2 12 16 16q4 0 6 -4zM1372 1700q14 25 45 24q0 -31 -24 -45zM3215 1987q12 25 41 24v-49q-29 0 -41 25z M3133 2232q16 0 17 -20q0 -20 -17 -21q-16 0 -16 21q0 20 16 20z" />
<glyph unicode="V" horiz-adv-x="2478" d="M348 51v-51h819q-6 41 66 49q41 -2 98 12q33 27 53.5 70t38.5 86q41 90 133 90q4 0 20.5 -10t20.5 -10q45 0 213 137q186 154 312 283q68 70 104 112q72 82 88 123q143 358 144 862q0 203 -136.5 346.5t-334.5 143.5h-1332q-127 0 -276 -99q-164 -106 -174 -229 q-2 -31 -8 -74l-50 -374q-33 -248 -75 -453q-33 -154 -33 -268q0 -6 2 -21v-18q0 -2 10 -10.5t10 -10.5q0 -37 -21.5 -105.5t-21.5 -107.5q0 -88 11 -155q4 -27 12 -62q86 -63 137 -63q31 0 63.5 43t63.5 43q35 0 92.5 -20.5t94.5 -20.5v-146h20l6 11q25 45 35 71v21 q-6 16 -21 41q10 4 62 12l61 8h13q33 0 83 -40t50 -72q0 -39 -38 -57.5t-75 -35.5q-25 -14 -33 -51h-307zM1044 184q-72 16 -79 19q-49 16 -62 47q-10 20 -10 57h233l-41 -86q-2 -4 -2 -6q0 -4 1 -7t42 -44l41 -41l2 -4v-6v-7l-2 -4q-6 -14 -20 -20h-4q-4 -2 -6 -2 q-37 0 -65 32.5t-28 71.5zM1290 209v-25h-41q12 25 41 25zM467 571q0 111 22 258q20 129 43 256q8 55 21 123l76 439q10 66 26 135l21 20h543q0 -106 -33 -314t-33 -312q-8 0 41 -9q27 -4 35 21l82 512q2 6 6 20l6 27q8 39 8 35q10 20 21 20h618q0 -270 -86 -614 q-2 -12 -112 -125q-195 -197 -392 -373q-141 -129 -231 -188q-45 -31 -64 -31h-512l-102 21v10q-4 33 -4 47v22zM285 625q0 35 49 34q0 -57 -27 -65q-14 6 -20 20v4q-2 5 -2 7zM348 881q16 0 17 -21q0 -20 -17 -20q-16 0 -16 20q0 21 16 21zM2191 2130q16 0 17 -21 q0 -20 -17 -20q-16 0 -16 20q0 21 16 21z" />
<glyph unicode="W" horiz-adv-x="3153" d="M1247 51q0 -2 2 -10q25 -41 41 -41h246l20 20l3 5v6q0 10 -82 43q-88 35 -105 110q-4 0 -10 2h-10q-27 0 -66 -54t-39 -81zM20 287q4 -6 17 -17l49 -49q6 -8 16 -16q37 -33 146 -113l69 -49q27 -23 31 -23h799v52h-778l61 71h184q-25 -10 -24 -45q43 0 72 41q23 39 47 78 q14 23 49 23v-37q29 0 83 12t83 12q35 0 48 -10t13 -43q0 -18 -13.5 -37.5t-13.5 -34.5h111q0 4 -2 10.5t-2 10.5q-20 41 -21 41q0 23 36 63.5t57 40.5q2 0 10 -2l20 -20q51 -20 62 -21q18 0 47 25q23 18 35 37h245l41 -21l-20 -41h10q18 0 43 11.5t47 11.5q125 0 125 -23 v-137q72 0 80 53q2 20 0 47q-12 100 121 101q213 0 352 -21q55 -8 82 -22l21 -21q33 0 69 8l148 29q37 6 71 6q27 0 49.5 -22.5t40.5 -22.5q55 0 101 158q35 127 35 221q0 115 -23 197q43 23 62 123q14 78 32 204l17 125q8 57 12 80q20 25 35.5 121t25.5 262q2 35 2 49 q0 274 -165 346q-37 14 -41 21q-33 41 -45 80q-6 16 -13 18q-18 4 -35 8q-23 4 -72.5 16.5t-60.5 20.5h-245q-82 0 -172 2h-732h-180l-350 -2q-188 -2 -264 -10q-154 -12 -256 -57q-227 -98 -279 -404l-53 -329q-12 -80 -39 -240q-6 -35 -10 -66q-16 -178 -62 -532 q0 -10 -20.5 -61.5t-20.5 -61.5v-16v-33q-2 -23 -2 -35v-51q0 -12 2 -35v-33v-22zM1638 41v-21h41v21h-41zM1903 51q0 -33 65 -33q37 0 107 37q78 41 77 78v6l-2 4q-6 14 -20 21q-43 -31 -110.5 -47.5t-114.5 -55.5v-4q-2 -4 -2 -6zM1516 184q12 -49 20 -61q20 -20 20 -21 l123 41v17q-25 0 -66.5 13t-66.5 13h-14q-10 -2 -16 -2zM2273 123l62 -21q0 2 2 7v4v6l-2 4q-20 20 -21 20q-21 0 -41 -20zM778 143v-24q29 0 41 24h-41zM2728 188h-49q-123 0 -123 -67h49q123 -1 123 67zM2785 205q-16 0 -16 -21q0 -20 16 -20t17 20q-1 21 -17 21z M1987 205q4 10 -11 10q-14 0 -10 -10t10 -10q7 0 11 10zM512 471v21v30q-2 20 -2 31v20q0 115 41 289q55 236 63 285q16 102 23 160l12 135q6 57 56 284q10 55 53 56h450l62 -21l-6 -30q-4 -20 -4 -43q0 -55 30 -70h4q4 -2 6 -2q47 0 60.5 83t52.5 83h518q0 -119 -42 -351.5 t-42 -351.5q6 0 28.5 -9t29.5 -5q20 8 49 199q10 113 41 340q25 178 53 178h594l20 -21q2 -49 2 -59q0 -47 -16 -115q-25 -96 -27 -112l-79 -480q-41 -242 -64 -483l-41 -41l-72 -2q-72 -2 -186 -4l-838 -12q-137 -2 -235 -2h-275q-23 0 -77 -2q-49 -2 -78 0q-109 2 -164 22 zM338 698q35 0 35 -43h-127q25 12 73 37q13 6 19 6zM2621 696q4 29 56 25q10 -2 14 -2q72 0 115 -23q-10 -4 -62 -10l-61 -10h-23q-31 0 -39 20zM410 963q16 0 16 -21q0 -20 -16 -20t-17 20q1 21 17 21zM1206 1223v-21q0 -45 43 -35q37 53 60 179q6 57 22 170v20 q-25 33 -41 41q-23 8 -41 -21q-10 -41 -32 -229l-9 -57v-23q-2 -16 -2 -24zM3011 1618q-4 -10 -21 -10q-16 0 -20 10q-4 8 20 8q25 0 21 -8zM2662 2028q16 0 17 -21q0 -20 -17 -20q-16 0 -16 20q0 21 16 21zM2621 2048q16 0 17 -20q0 -20 -17 -21q-16 0 -16 21q0 20 16 20z M2417 2048q-4 -10 -11 -10q-6 0 -10 10t10 10q15 0 11 -10zM1475 2130q-4 -10 -11 -10q-6 0 -10 10t10 10q15 0 11 -10zM2806 2150q16 0 16 -20t-16 -21q-16 0 -17 21q1 20 17 20zM2519 2191q16 0 16 -20t-16 -21q-16 0 -16 21q0 20 16 20z" />
<glyph unicode="X" d="M18 532q0 -211 121 -364q129 -168 332 -168h1393q190 0 325 139q115 117 176 314q53 176 54 356q0 43 -27 115q-23 55 -43 112q-14 35 -14 70q0 45 61 104q37 35 47 45q27 31 35 56q104 309 105 512q0 272 -156 401q-123 102 -373 125q-111 10 -225 8q-385 -2 -1153 -22 q-139 -6 -240 -92q-182 -152 -231 -447q-23 -137 -23 -262q0 -80 25 -172q8 -31 18 -72q-4 -8 -82 -160q-49 -96 -61 -167q-20 -106 -41 -213q-23 -126 -23 -218zM924 1190v12l-2 6l-246 308v10q-2 10 -2 14q0 195 43 270q20 39 61 54h27q14 0 45 2h43h29q162 0 280 -11 q47 -4 109 -12v-31q0 -76 -17.5 -227t-17.5 -227q47 0 57 16q4 8 18.5 80t32.5 195l17 116q8 55 12 78l41 21h594q43 0 43 -39v-13q-2 -6 -2 -10q-4 -16 -12 -57l-17 -86q-18 -90 -32 -143q-10 -12 -39 -35l-70 -56q-92 -74 -160 -137q-84 -80 -84 -110q0 -23 4 -31 q16 -23 107 -123q66 -74 96 -131q25 -47 25 -100q0 -152 -33 -261q-12 -41 -31 -40h-641q0 96 30 286.5t30 286.5q-4 0 -24.5 12.5t-29.5 7.5q-23 -16 -39 -139q-8 -55 -22 -168l-8 -51q-8 -55 -25 -162l-8 -53l-21 -20h-577q0 244 35 358q29 96 135 147q78 35 106 50 q59 33 99.5 65.5t40.5 77.5z" />
<glyph unicode="Y" horiz-adv-x="3932" d="M1985 -227q0 -180 124 -285q100 -86 285 -121q133 -25 318 -24q375 0 540 55q279 92 332 377l37 194q16 92 31 183l28 178q25 170 84 512q47 227 127 682q23 170 23 329q0 199 -117 345q-125 158 -315 157h-758q-174 0 -291 -133q-98 -115 -139 -297q-20 -90 -29 -119 q-25 -72 -61.5 -99.5t-96.5 -31.5q-61 -6 -161 4q0 -219 -119 -219q0 37 29.5 100.5t29.5 98.5v10q-2 6 -2 10q-27 0 -55 11q-47 16 -47 41t11 71.5t11 71.5q0 201 -147.5 341t-345.5 140h-635q-186 0 -297 -145q-90 -115 -137 -322q-20 -88 -33 -174l-25 -158 q-6 -39 -24 -159l-35 -230q-8 -55 -23 -163q-12 -18 -20 -62q-16 -104 -49 -311q-10 -55 -13 -78q8 -20 21 -82l10 -61q2 -27 10 -62q27 -117 179 -221q137 -96 272 -96h1475l20 -31q-49 -63 -49 -150q82 0 110 27v-20q-12 0 -44.5 -15.5t-36.5 -25.5v-17q-2 -16 -2 -26z M2413 -492h65v-47q-65 0 -65 47zM2273 -512q-4 -10 -10 -10t-10 10t10 10t10 -10zM2068 -266l21 -21h-21v21zM2130 -164q10 20 20 21q41 8 82 8v-58q-41 0 -82 9q-10 0 -20 20zM2417 61q98 35 108 193q2 45 -4 121q-6 88 -6 121q-29 0 -51 6l-45 12q-68 18 -105 18 q-31 0 -61 -20h-430q-49 0 -150 2l-991 16q-102 0 -150 2v31q-2 20 -2 31q0 123 25 262q4 33 18 107l21 81l61 410q31 199 62 332q23 98 41 98h563q0 -104 -46 -308t-46 -308q0 -23 19.5 -41.5t41.5 -18.5l492 21q4 12 27.5 26.5t33.5 14.5q4 0 31 -29q12 -14 31 -33h16 q152 0 281 35q29 8 92 27l4 2h7h7l2 -2q94 -63 228 -64h20q8 0 25 2h24h10q41 8 41 21l103 614l41 41h594l20 -20q2 -49 2 -58q0 -61 -12 -123l-27 -124q-29 -127 -28 -189q0 -29 4 -59l-246 -1454h-641v47q0 122 -55 157zM2089 -20q49 -6 49 -41h-70zM2068 20q16 0 17 -20 q0 -20 -17 -20q-16 0 -16 20t16 20zM2273 61h21v-20h-21v20zM2128 225v11q2 6 2 10q66 -8 65 -88q-27 0 -47 20t-20 47zM2376 225h41v-24q-29 -1 -41 24zM1843 369q6 14 21 20l4 2h7h7l2 -2q8 -16 21 -41h-11q-6 -2 -10 -2q-33 0 -41 23zM2232 389q0 4 8.5 12.5t12.5 8.5 v-62q-21 21 -21 41zM2273 471q16 0 17 -20q0 -20 -17 -21q-16 0 -16 21q0 20 16 20zM1925 1372q16 0 17 -20q0 -20 -17 -21q-16 0 -16 21q0 20 16 20zM2023 1417q49 0 50 -49q-50 0 -50 49zM2109 1475q12 25 41 24v-49q-29 0 -41 25zM2294 1516q16 0 16 -21q0 -20 -16 -20 t-17 20q1 21 17 21zM2089 1597l41 -41h-41v41zM2212 1597h20v-41h-20v41z" />
<glyph unicode="Z" horiz-adv-x="2867" d="M594 113q0 -98 143 -111q35 -4 62 -4q29 0 78 11t75 11h11q16 -6 41 -20h1167q123 0 265 92t165 215l143 778v164h-467l-45 -225l-20 -20q-31 -20 -41 -21h-983q-23 0 -23 -41q0 -33 23 -41q29 0 86 2h88h88q57 -2 89 -2t114 -16q20 -4 26 -4q14 -2 35 2q18 2 27 -23 q6 2 180 19q33 2 45 2h49q-29 0 146 -4q35 -2 49 -3v-6q2 -6 2 -8q-4 -20 -12 -72l-17 -112q-18 -115 -33 -184q-336 -23 -682 -23q-176 -2 -346 0q-172 0 -323 2q-74 -14 -99 -90q-14 -47 -14 -143q0 -53 -10 -95q-8 2 -23 4q-59 5 -59 -34zM139 246q0 -4 25 -33l51 -63 q74 -90 92 -91q131 0 182 29q25 12 25 35q0 29 -23.5 79t-23.5 85q0 14 2 40.5t2 41.5q59 10 92 43q12 12 12 28q0 12 -14 16.5t-29 8.5q-43 16 -43 76q0 41 39 207q47 207 78 319q16 57 29 96q27 76 41 86h307q-2 0 172 6l201 7q98 2 170 6l71 2l41 20l-41 41h-880 q-23 0 -33 43q-8 35 -8 60v20q4 -23 53 -22q57 0 49 43h-73q0 -12 12 43q4 12 -15 16q-10 4 -26 2q18 47 41 61q-14 6 -21 21v4q-2 4 -2 6t2 6v4q4 4 11.5 10.5t11.5 10.5l12 12q6 6 7 10.5t1 20.5v76q0 18 -2 24q27 -25 86 -24q0 31 -24 45q4 0 10 2h10q20 0 32.5 -11.5 t35.5 -11.5q92 0 273 20.5t274 20.5q88 0 309 -14q72 -6 121 -6h123q82 -2 122 -2q78 0 148 2h98l21 -21q-4 -18 -13 -65l-20 -99q-12 -55 -29 -163v-123q0 -4 -10 -20.5t-10 -20.5t8 -12.5t12 -8.5h430q27 0 54 127q16 84 36 246q14 125 15 152q0 281 -221 405 q-172 96 -478 96q-115 0 -345 -12t-345 -12q-76 0 -225.5 12t-224.5 12q-301 0 -498 -73q-268 -102 -268 -377q0 -35 22 -117q23 -92 51 -92q4 0 9 2h2q8 16 20 41h-41q-4 45 41 45q18 0 30.5 -18.5t31.5 -18.5v-29l-103 -102q-16 4 -31 4q-53 0 -53 -45q0 -16 11.5 -35.5 t11.5 -36.5q0 -45 -62 -92q20 -10 45 -92q4 -18 17 -31q6 -8 22 -22l31 -33q16 -16 49 -47q27 -20 39 -21q12 -2 21 0q18 2 43 -41q-33 -27 -99 -26h-28q0 -10 20 -43q12 -23 37 -62l8 -12h21v-39h-11q-6 -2 -10 -2l-31 12q-20 8 -30 9l-19 -15q-49 -39 -78 -69 q-18 -18 -18 -27q41 0 53 -12q6 -18 21 -41q14 -8 84 -17q8 0 30 -12l9 -12q-20 8 -37 8q-43 0 -60 -90q-8 -49 -14 -96q-10 -59 -33 -88q-29 -37 -41 -62q-4 51 -65 137q-57 80 -58 140v10q61 160 62 225q0 20 -21 41l-4 2h-6h-4q-4 -2 -6 -2q-102 -262 -103 -430 q0 -41 78 -104q37 -27 107 -80q-4 -23 -21.5 -35t-31 -21.5t-13.5 -25.5zM2048 123h41v-21h-41v21zM410 205l20 -21h-20v21zM551 276q0 -37 67 -36q0 70 -34 69h-6l-5 -2q-14 -6 -20 -20v-4q-2 -5 -2 -7zM389 307q10 -4 10 -20t-10 -21q-10 -4 -10 21q0 24 10 20zM1147 307 q2 0 6 2h4q35 0 35 -43h-45v41zM430 307q16 0 16 -20t-16 -21q-16 0 -16 21q0 20 16 20zM328 471q-4 12 26 18q20 4 37 5q41 0 41 -56v-4l-2 -4q-20 -20 -61 -41h-7q-4 -2 -6 -2t-4 2h-4zM205 676q-16 -2 -23 -33q-2 -12 0 -22q2 -35 2 -68q43 -2 43 39q1 35 -22 84z M2294 655q-4 -10 -10 -10t-11 10q-4 10 11 11q14 -1 10 -11zM203 983q0 -33 22 -41q14 6 21 21l2 4v7v7l-2 2q-20 20 -41 21v-11q-2 -6 -2 -10zM451 963l20 20v-41zM1004 1208q-16 0 -17 -20q0 -20 17 -21q16 0 16 21q0 20 -16 20zM676 1229q-16 0 -17 -21q0 -20 17 -20 q16 0 16 20q0 21 -16 21zM307 1352q-2 -10 -10 -11q-8 0 -10 11q-2 10 10 10t10 -10zM2458 1454h82q-16 -25 -41 -41h-5q-4 -2 -6 -2t-6 2h-4zM819 1475q-25 -12 -24 -41h24v41zM881 1454q-2 4 -7 4q-14 -4 -16 -16q-2 -6 2 -8q10 -4 17.5 3t3.5 17zM1024 1475 q-16 0 -16 -21q0 -20 16 -20t16 20q0 21 -16 21zM2642 1475q-6 -10 -31 -11q-25 0 -31 11q-8 8 31 8q35 0 31 -8zM799 1536q-16 0 -17 -20q0 -20 17 -21q16 0 16 21q0 20 -16 20zM881 1556v-40q25 12 24 40h-24zM819 1597q-10 4 -10 -10t10 -10t10 10t-10 10zM246 1679 q-16 0 -17 -20q0 -20 17 -21q16 0 16 21q0 20 -16 20zM963 1782q-16 0 -17 -21q0 -20 17 -20q16 0 16 20q0 21 -16 21zM389 1843q16 0 17 -20q0 -20 -17 -21q-16 0 -16 21q0 20 16 20zM717 1864q10 -4 10 -21q0 -16 -10 -20t-10 20q0 25 10 21zM758 1864q16 0 16 -21 q0 -20 -16 -20t-17 20q1 21 17 21zM817 1968q0 25 19.5 45.5t44.5 20.5v-47h-25q0 -8 2 -23.5t2 -24.5q0 -10 -20 -55q-23 45 -23 84zM1516 2068h20l-20 -40v40zM881 2171l20 -21h-20v21z" />
<glyph unicode="a" horiz-adv-x="3256" d="M82 266q174 -266 471 -266h1188q72 12 164 18q29 2 41 2q33 0 98 3h98h281h100q66 -2 98 -3q399 72 451 451l164 1229q4 70 4 119q0 492 -496 577h-635q-57 0 -176 -2l-1163 -16q-119 -2 -176 -2q-131 -20 -242 -97q-131 -90 -147 -211l-185 -1413v-30q-2 -23 -2 -33 q0 -115 35 -232q13 -41 29 -94zM1946 451q4 0 12 -8.5t8 -12.5q0 -49 -47 -49q0 62 27 70zM512 492v102l143 1167q0 12 17 101q2 16 4 22q145 10 393 19q70 2 98 2q104 0 416 4h760h127q82 -2 125 -2h90l39 -2l35 -35l-117 -1051q6 -63 -16 -182q-31 -145 -66 -145h-573 l-21 20l2 23q2 20 6 51l6 59q2 18 7 51q20 131 38 260q23 154 23 263v30q-35 2 -121 6l-371 13q-88 2 -122 2h-41l-101 -10q-27 -4 -45 -7l-18 -4v-47q68 0 205 3t204 3h103q25 0 63 -2l74 -6q61 -6 88 -12l21 -41l-2 -21q-12 -94 -31 -282q-8 -125 -17 -180 q-16 -102 -53 -172q-2 0 -250 -7l-510 -12q-68 -2 -100 -2h-231q-74 0 -166 8q-47 5 -115 13z" />
<glyph unicode="b" horiz-adv-x="3235" d="M18 543q0 -215 129 -375q137 -168 345 -168h2048q168 0 297 103.5t174 265.5q10 16 24 55q0 8 -4 27l102 737q-6 41 -6 84q0 84 37 252q53 242 53 338q0 188 -139 352q-147 172 -334 172h-891q0 309 -81 459q-113 201 -472 223q-117 6 -262 6q-315 0 -481 -76 q-236 -109 -270 -377l-226 -1720v-27q-2 -18 -2 -26q0 -59 43 -76q14 -4 28.5 -8t14.5 -16q0 -14 -22.5 -21.5l-40.5 -13.5q-64 -31 -64 -170zM496 528l262 1909q-2 10 0 31q4 92 41 92h559q0 -104 -34 -308t-34 -308v-19q4 -8 20.5 -29.5t20.5 -21.5h1389l-160 -1280 q-6 -20 -20 -62q-10 -20 -21 -20l-266 -20h-1721zM430 758q16 0 16 -21q0 -20 -16 -20t-16 20q0 21 16 21zM1206 1219q0 -2 2 -11q20 -20 21 -20h758q43 0 43 39q0 43 -23 43h-737q-16 0 -40 -17.5t-24 -33.5z" />
<glyph unicode="c" horiz-adv-x="2478" d="M20 524q0 -201 136 -358q139 -166 336 -166h1351q176 0 295 131q111 119 135 299q33 240 54 389l49 389q4 27 51 295q33 178 33 297q0 209 -129 367q-139 168 -344 168h-1373q-129 0 -261 -109.5t-148 -238.5l-164 -1311v-17q-2 -10 -2 -16q0 -49 37 -49q14 0 44 4t44 4 v-29q-12 0 -74 -16q-70 -21 -70 -33zM512 492q-23 25 -23 71v17q2 10 3 14l73 493q10 68 29 203l20 226q0 8 7 40l26 144q6 33 8 41v61q10 20 21 21h1292v-21q-2 -14 -2 -20l-41 -328q-4 -47 -9 -97t-32 -87q-86 -16 -174 -13q-90 2 -178 7q-90 4 -176 0t-168 -35v-10 q-2 -6 -2 -11q0 -51 22 -51h656q12 0 20 -31q2 -49 2 -57v-133q0 -182 -31 -322q-18 -78 -53 -122q-49 -4 -239 -9l-340 -8q-160 -4 -240 -4q-145 0 -377 14z" />
<glyph unicode="d" horiz-adv-x="3174" d="M18 530q0 -250 148 -372q102 -90 366 -158h1885q174 0 321.5 120t169.5 290l164 1331q27 174 53 350q31 209 31 350q0 344 -188 471q-150 100 -514 101q-66 0 -158 2q-219 2 -370.5 -44t-209.5 -182q-31 -72 -53 -174q-35 -156 -39 -172q-31 -109 -88 -108h-881l-204 -41 q-4 0 -11 2q-8 0 -10 -2q-150 -100 -215 -273q-41 -109 -72 -342q-2 -8 -12 -98l-61 -510q-8 -84 -29 -252q4 -53 -8 -145q-15 -103 -15 -144zM530 596q0 106 25 266q35 236 39 264l61 553q0 8 11 56q2 18 10 47q10 20 20 20l164 21h1106q59 0 82 41q12 61 33 194l16 117 q8 55 12 78q0 115 19 188q8 33 22 37q244 23 426 23h39l27 -2l20 -21q-6 -27 -16 -82q-4 -14 -4 -20q-27 -147 -64 -445q-6 -76 2 -149l-143 -1168q2 -10 2 -41t-2 -41q-10 -20 -20 -20h-1700l-185 20v25q-2 25 -2 39zM1145 1198q0 -2 2 -10q25 -41 41 -41h717 q20 0 40.5 20.5t20.5 40.5t-20 41q2 0 -197 6l-401 13q-53 2 -78 2h-21q-33 -8 -92 -43q-12 -13 -12 -29z" />
<glyph unicode="e" horiz-adv-x="2826" d="M18 549q0 -293 222 -434q178 -115 489 -115h8q49 12 62 20h1372q137 0 273 106.5t157 242.5l123 819q27 162 55 321q29 188 29 326q0 78 -21.5 123t-83.5 90q23 8 23 43v12l-2 6q-6 6 -31 21q-12 8 -31 20q-2 2 -2 11q0 6 2 20v19v12q-14 61 -151 117q-119 47 -197 47 h-655q-23 0 -23 -41q0 -43 68 -103.5t108 -60.5q16 0 40 11t42 11q20 0 51 -12t52 -12q20 0 60 8t61 8q0 -63 -54 -63q-14 0 -39.5 4t-35.5 6q-25 0 -25 -33q0 -39 53 -33q66 4 76 7q37 8 74 32q57 39 106 86h246q-23 -29 -152 -97.5t-151 -68.5q-20 0 -48 11.5t-48 11.5 q-43 0 -124 -20.5t-124 -20.5h-29q-4 0 -20.5 10.5t-20.5 10.5q-6 0 -30.5 -20.5t-30.5 -20.5q-49 -2 -60 -2q-29 0 -84 20q-12 4 -32 4q-16 0 -25 -6l-33 -29q-8 -8 -20 -8h-12q-31 4 -123 35q-80 27 -121 27h-23q-31 -6 -82 -21h-446q0 2 -4 10q-2 6 0 11l41 81q4 8 4 21 h-66q-27 -63 -47 -88q-33 -37 -86 -37q-18 0 -41.5 11.5t-40.5 11.5q-41 0 -51 -72h-164q-4 0 -18 -82q-10 -47 -23 -133q-2 -29 -2 -47q0 -41 12.5 -56.5t51.5 -19.5q-8 -23 -39 -23t-43 -18q-35 -55 -47 -172q-4 -59 -15 -176q-27 -170 -53 -338q-31 -203 -31 -342z M1329 178q0 51 33 51q12 0 31 -4q-10 -35 -41 -102q-23 4 -23 55zM840 164h41v-25q-29 0 -41 25zM305 379q0 106 45 156q18 18 49 18h11q14 -6 20 -21q-12 -12 -36.5 -51t-24.5 -61v-10q0 12 12 -41q8 -43 8 -41q0 -35 -41 -62q-43 21 -43 113zM1454 348q6 14 21 21l4 2h6h6 l4 -2q14 -6 21 -21q-6 -14 -21 -20h-4q-4 -2 -6 -2t-6 2h-4q-15 6 -21 20zM1311 492q-78 -2 -176 -5q-98 -2 -203 0q-264 6 -400 25q-14 6 -20 20v21l102 840q8 119 45 356q12 57 37 94l21 31h512q35 35 121 45q53 6 125 6l41 -20h10q6 -2 10 -2q20 0 30.5 12t30.5 12 q25 0 60 -14q49 -18 59 -21q29 -6 66 -8q68 -2 246 -2q78 0 147 2h98l21 -20q6 -6 13 -83t7 -122l-8 -31q-12 -37 -12 -31q-14 -66 -66 -409l-16 -103l-21 -41h-909q0 201 72 232q29 12 114 20q104 8 129 15q14 6 21 20l-21 21h-348q-29 0 -49 -125q-14 -86 -14 -154 q0 -141 63 -141h860l62 -31l2 -18v-31q0 -182 -29 -285q-14 -47 -35 -55q-420 -27 -675 -20q-27 -23 -62 -23q-34 0 -61 23zM389 676l21 -21h-41zM328 1372h45q0 -45 -45 -45v45zM205 1495q6 14 20 21l4 2h7q37 0 36 -70q-38 0 -67 47zM2437 1597q16 0 17 -20q0 -20 -17 -21 q-16 0 -16 21q0 20 16 20zM2417 1638h20v-20zM635 2028q16 0 16 -21q0 -20 -16 -20t-17 20q1 21 17 21zM2519 2048q8 0 27 2h24q6 0 17 2q51 4 55 -24q-27 -27 -123 -27v47zM1024 2068q8 -23 43 -22q39 0 39 43l-21 20l-4 2h-6h-6l-4 -2q-25 -16 -41 -41zM430 2140 q0 -74 72 -74q57 0 96 50q29 49 57 96q10 12 47 23.5t37 25.5q0 35 -43 35q-16 0 -35.5 -11.5t-35.5 -11.5h-11q-14 6 -20 21q-10 -14 -29 -41l-18 -25q-10 -12 -15 -16q-10 -12 -61 -31q-41 -14 -41 -41zM956 2157q0 -39 48 -68q14 6 20 20l2 5v6q0 37 -70 37zM1249 2171 q-10 4 -10 -10t10 -11q10 4 11 11q-1 6 -11 10zM1270 2232q18 0 55 2h57.5h57.5q37 -2 55 -2q4 0 29.5 -10t31.5 -10q16 0 23 35q2 12 2 24q-2 10 -2 13v26q-2 16 -2 25q-51 41 -154 45q-45 2 -88 0t-75 -2h-27h-41q-25 -2 -39 -2h-27q-16 -6 -41 -21v-4q-2 -4 -2 -6 q0 -39 78 -66q41 -12 109 -47z" />
<glyph unicode="f" horiz-adv-x="2621" d="M18 -178q0 -336 234 -461q164 -86 536 -86q94 0 205 2q37 2 51 2q303 66 414 200t139 455l41 21q113 0 297 14q29 2 72 6q236 29 334 248q39 86 61 211q4 12 35 217q12 49 21 62q23 211 67 542q63 438 76 543v10q0 236 -166 369q-127 100 -387 154h-72q-37 0 -108 2h-107 h-164h-108q-72 -2 -109 -2h-49q-35 0 -121 -2l-370 -13q-51 -2 -123 -6q-205 -20 -309 -166q-82 -117 -115 -321q-14 -119 -47 -353l-82 -532l-144 -1044v-35q-2 -25 -2 -37zM512 -86l225 1679q25 74 41 205l41 21h1249l21 -21v-14q0 -8 2 -27v-26v-23q0 -215 -31 -375 q-12 -66 -32 -88q-23 -8 -64 -14t-172 -6q-82 -2 -174 -2t-172 2h-115q-43 2 -43 -39q0 -53 23 -53h700v-19q0 -12 -2 -36.5t-2 -37.5l-14 -141q-10 -86 -21 -168l-16 -141q-8 -57 -10 -62l-41 -71h-697l-8 -11q-8 -12 -12 -20l-21 -41q-4 -29 -12 -98l-16 -148 q-10 -82 -33 -245q0 -25 -10 -58q-12 -39 -31 -45q-121 -18 -270 -22h-95h-34h-39q-25 2 -37 2h-17q-61 8 -61 20v123z" />
<glyph unicode="g" horiz-adv-x="3235" d="M512 -569q2 0 377 -6l764 -13q100 -2 149 -2h615q311 41 444 197q55 63 68 151l61 430q14 80 27 162q16 96 16 162q0 33 -2 66l143 1105q41 86 41 228q0 109 -49 215q-61 129 -155 151q-4 0 -20.5 -1t-20.5 1q-27 16 -64 62q-27 31 -100 53q-35 6 -101 25q-20 4 -22 4 h-676q-41 0 -105.5 -32t-99.5 -32q-41 0 -61 43q-248 23 -477 23h-232h-96q-61 -2 -94 -2h-64q-61 -20 -184 -68q-29 -14 -62 -35q-209 -137 -266 -444q-20 -102 -35 -279q-14 -203 -26 -280q-10 -33 -23 -101q-2 -16 2 -43l-164 -1239q0 -219 148 -348q119 -102 344 -153z M512 -16l61 471l21 20q160 -2 334 0q358 2 696 12l322 9q23 4 22 51v14q0 47 -22 47h-1338q0 227 60 580q78 467 90 577q2 23 2 50q-2 20 -2 36q0 43 20 78h121q61 0 186 2h185h461q332 0 612 -8q156 -6 340 -14q20 -4 20 -21v-28q0 -29 -14 -99q-10 -61 -6 -98l-205 -1679 q0 -10 -20 -41l-21 -21h-1905q-4 0 -20 41v21zM328 1110q10 -4 10 -10t-10 -10t-11 10q1 14 11 10zM1268 1307v-13q0 -41 22 -41h758q23 0 23 41q0 33 -23 41q-199 18 -410 23h-143h-37h-57q-37 -2 -55 -2h-35q-43 8 -43 -49zM2025 2329q0 2 3 6v4q20 20 40 20l21 -20 q8 -25 20 -62v-20q-25 4 -51 27q-33 25 -33 45zM942 2359q16 0 16 -20t-16 -21q-16 0 -16 21q0 20 16 20zM1741 2380q16 0 16 -21q0 -20 -16 -20t-17 20q1 21 17 21z" />
<glyph unicode="h" d="M348 319v-237l21 -21q35 -25 123 -45q68 -16 102 -16h1311q139 0 249.5 75t167.5 204q35 80 54 172q6 35 14 79l96 621q4 29 13 78l55 307q29 154 29 311q0 268 -201 404q-170 111 -457 125q6 39 6 84q0 295 -164 467q-70 72 -170 84h-71q-37 0 -109 2h-106h-72h-324 q-154 -2 -321 -23q-158 -80 -238 -336q-53 -166 -69 -422q0 2 10 -41q10 -53 10 -41q0 -6 2 -16v-16q0 -37 -37 -119q-20 -41 -47 -115q-20 -94 -24 -266q-4 -188 -17 -266q-12 -84 -98 -408q-66 -250 -66 -412q0 -115 23 -172q31 -80 121 -114q51 33 45 57q-2 8 -6 12 q-6 4 45 4h100zM410 225q16 0 16 -20t-16 -21q-16 0 -17 21q1 20 17 20zM119 410h24v-62l-20 41q-4 5 -4 21zM225 451q8 27 62 26v-53q-54 0 -62 27zM532 512q-25 16 -40 41v4l-3 6q0 2 3 6v4q6 14 20 21l41 184l205 1393q14 35 20 82l41 287h600q0 -94 -20 -228 q-18 -115 -37 -227q-4 -51 -12 -152v-12q-6 -68 22 -68h731l-198 -1300q0 -10 -21 -41l-20 -20h-615q-4 0 -12 8t-8 12q-2 47 -2 57q0 113 39 333t39 333q-6 0 -23.5 6t-26.5 8q-18 2 -24 -9t-2 -32q-27 -227 -103 -676q-6 -16 -20 -40h-92q-117 0 -342 12q-62 2 -140 8z M123 705q0 74 92 73q16 0 32.5 -21.5t17.5 -39t3 -41.5q2 -33 4 -43l2 -51v-33q-51 0 -47 41q0 16 4 37q17 78 -108 78zM123 655q16 0 16 -20t-16 -21q-16 0 -17 21q1 20 17 20zM389 901l21 21v-41zM221 1073q8 0 51 -39q37 -35 37 -41v-6l-2 -4q-6 -14 -20 -20 q-66 51 -66 110zM328 1352h43q0 -92 -43 -92v92zM451 1700v-144q-29 6 -23 48q0 25 2.5 51.5t20.5 44.5zM2335 1864q16 0 16 -21q0 -20 -16 -20t-17 20q1 21 17 21zM410 2499q16 0 16 -21q0 -20 -16 -20t-17 20q1 21 17 21z" />
<glyph unicode="i" horiz-adv-x="1884" d="M102 225q156 -174 387 -211q106 -18 224 -18q160 2 321 2q188 6 316 45q231 72 268 264l102 533q0 4 2 10v12q0 61 -63.5 85t-63.5 46q0 4 2 8v3l41 20q35 12 103 41q14 10 47 197q14 80 29 174l24 174q25 182 25 205q0 205 -133 358q-141 162 -340 162h-697 q-240 0 -368 -193q-96 -141 -144 -424q-18 -143 -61 -428v-10q-2 -8 -2 -12q0 -25 35 -56q20 -20 49 -65q2 -8 129 -35q66 -14 158 -47q0 -8 2 -27v-24v-27q0 -51 -9 -80q-6 -16 -14 -16h-389q-12 0 -21 -51v-144q0 -10 -20.5 -61t-20.5 -62q-2 -41 -2 -49q0 -98 27 -145 q33 -61 119 -72q4 -4 4 -10q0 -18 -35 -21.5t-35 -29.5q0 -17 4 -21zM410 123v-21h-21zM451 348h61v-61h-61v61zM328 535q41 0 61 -43h-106q0 43 45 43zM532 655l164 1127q0 10 21 41l20 20h594q41 0 41 -37q0 -109 -43 -319.5t-43 -319.5q0 -14 2 -40.5t2 -41.5l21 -20 q18 10 24 29l13 34q14 41 51 41h18q10 -2 17 -2q-6 0 30 -10l31 -10q4 0 20.5 10t20.5 10q35 2 41 2q63 0 63 -32v-7l-2 -4l-20 -20h-164q-45 0 -45 -74q0 -29 61 -53q49 -20 93 -21q0 -6 -7 -16q-23 -41 -40 -41h-226l-61 -61l-41 -246q-6 -43 -21 -82h-663v29 q-1 85 28 114zM430 676q16 0 16 -21q0 -20 -16 -20t-16 20q0 21 16 21zM246 942q-10 4 -10 -10t10 -10t10 10t-10 10zM451 1147h61v-21zM512 1475q2 0 6 2h4h6l4 -2q14 -6 21 -21q-12 -25 -41 -24v45z" />
<glyph unicode="j" horiz-adv-x="1986" d="M18 -176q0 -199 125 -350q133 -162 328 -162h717q168 0 299 123q125 119 151 286l185 1127q-2 25 -2 49q0 90 43 246q12 45 20 94q25 135 55 350l17 105q6 47 10 77v21q0 180 -121 340q-131 172 -309 172h-758q-188 0 -295 -125q-90 -106 -137 -291q-20 -82 -33 -164 l-26 -157q-27 -131 -54 -260q-31 -156 -30 -265q0 -31 27.5 -48t56.5 -31q14 -12 14 -46q-16 0 -46 9.5t-46 9.5q-6 0 -14 -2l-11 -2l-123 -778v-39q-2 -27 -2 -39q0 -29 12.5 -72t12.5 -68q0 -8 -33 -30.5t-33 -79.5zM178 -233q176 0 279 -48q39 -18 39 -47h-41l-64 2 q-14 2 -50 4.5t-54 2.5q-39 4 -70 26q-39 25 -39 60zM510 -127q0 154 74 485q74 340 73 469q0 41 -61 84q-35 18 -104 60q0 4 8 12t12 8q25 0 76 -35q10 -8 26 -8q68 0 93 137q6 74 30 193l62 491l41 41h614l21 -20l4 -37l2 -27v-22q0 -90 -35 -225q-47 -186 -53 -222 q-10 -80 -33 -241q-6 -41 -8 -66q-16 -158 -97 -628q-49 -289 -84 -445q-16 -74 -24 -74h-615q-16 0 -22 33q-2 12 -1 23.5t1 13.5zM369 -127v-29h-103q10 20 21 21q41 8 82 8zM123 -53q25 41 72 41h10q18 -8 41 -21l2 -4v-6v-6l-2 -4q-20 -6 -62 -21h-20q-16 7 -41 21z M512 705q16 0 16 -21q0 -20 -16 -20t-16 20q0 21 16 21zM471 1544h41q-12 -25 -41 -24v24zM1556 1565q-4 -10 -10 -11q-6 0 -10 11q-4 10 10 10t10 -10z" />
<glyph unicode="k" horiz-adv-x="2519" d="M266 61q156 -61 348 -61h1270q96 0 223 97.5t146 189.5l184 1024q61 354 62 501q0 270 -189 404q-160 109 -446 119q4 35 4 71q0 344 -211 516q-84 68 -203 68h-758q-117 0 -225 -117q-102 -109 -123 -231l-184 -1126q4 -31 4 -66q0 -125 -66 -416q-84 -371 -84 -491 q0 -172 58 -271q40 -76 190 -211zM494 530l161 1067q-4 18 -4 41q0 59 31 181q20 76 55 229l62 369q6 43 20 82h533l20 -21v-8q0 -150 -62.5 -441.5t-62.5 -441.5v-57q0 -33 23 -55l41 41l61 266l41 41h574q23 0 22 -45v-13q0 -35 -11 -100.5t-11 -99.5v-9q4 -20 28.5 -62 t42.5 -42t23 18q6 31 12 39.5t31 8.5q8 0 47 -2q4 0 20.5 -10.5t20.5 -10.5l34 11q33 10 27 10q4 0 11 2h12q61 0 61 -54v-6l-2 -4q-6 -14 -20 -20q-27 6 -82 18q-14 2 -21 2h-10q-27 0 -86 -47q-14 -10 -23.5 -13t-64.5 -12q-27 -4 -61 -10q-14 -6 -21 -20 q-12 -47 -18 -107q-2 -18 -2 -26h-308v-52q102 0 103 -51h190v-26q-2 -27 -6 -46q-6 -53 -20 -159q-20 -154 -47 -258q-37 -135 -76 -135h-574q-4 0 -12 8t-8 12q-2 49 -2 57q0 37 11 106.5t11 106.5t-51 37h-10q-20 -10 -21 -20l-65 -307h-529zM389 778q16 0 17 -20 q0 -20 -17 -21q-16 0 -16 21q0 20 16 20zM410 942q10 -10 10 -41t-10 -41t-11 41q1 51 11 41zM451 1372h24q0 -29 -24 -41v41zM512 1925q10 -4 10 -10t-10 -10t-10 10t10 10zM594 2580q16 0 16 -20t-16 -20t-16 20t16 20z" />
<glyph unicode="l" horiz-adv-x="1884" d="M18 545q0 -219 117 -375q127 -170 336 -170h696q240 0 365 268q88 193 88 404q0 35 -2 65l225 1393q-4 61 8 160q14 113 15 159q0 258 -150 381q-121 98 -356 127q-104 12 -215 13h-213q-311 0 -461 -119q-121 -96 -172 -324q-27 -106 -53 -313q-27 -215 -47 -313 q-16 -72 -17 -150v-35q2 -25 2 -37q27 -41 84 -41q25 0 51 2q25 2 50 -2q6 0 41.5 -20.5t40.5 -20.5h8q8 -2 12 -2q16 0 38.5 9.5t39.5 9.5q0 -20 2 -60.5t2 -60.5q0 -35 -21 -121h-4q-4 -2 -6 -2q-14 0 -30.5 33t-40.5 33q-27 0 -46.5 -42t-35.5 -42q-31 0 -82 20 q43 20 43 62v10q-2 6 -2 10q-29 4 -81 34t-73 30h-4q-4 -2 -6 -2q-10 -143 -82 -486q-64 -307 -64 -485zM512 676l123 962q27 55 53 269q12 121 43 366q25 184 47 185h604q0 -121 -47 -358.5t-47 -358.5v-41q2 -27 2 -41q10 -33 105 -39q86 -6 86 -66q-23 0 -65 11.5 t-64 11.5q-84 0 -84 -82v-14q-6 -41 22 -47q14 0 41 2h41h41q27 -2 41 -2q57 -6 62 -7q27 -8 26 -45q0 -51 -67 -51q-10 0 -72 10.5t-72 10.5q-20 0 -59 -19.5t-43 -42.5l-123 -778l-21 -20q-41 0 -120 -3q-27 -2 -41 -2q-115 0 -209 5h-39q-18 0 -45 4l-56 6q-43 4 -63 10 v164zM1536 1618l61 -21q-37 -47 -61 -47v68zM1638 1618h41v-21h-41v21z" />
<glyph unicode="m" horiz-adv-x="3276" d="M18 553q0 -242 127 -371q100 -104 308 -137q113 -20 387 -25q102 -2 311 -6l684 -12q84 -2 111 -2h594q299 53 403 176q94 115 149 438l31 177q23 150 70 448q18 113 33 205l22 149q8 59 8 66v266q-29 8 -94 51q-51 33 -104 33q-23 0 -54 -29l-22 -18q-10 -10 -27 -10 q0 125 199 137v92h-225l-62 133l-6 2h-10h-12q-8 -2 -13 -2q-35 -4 -106 -16q-14 -4 -18.5 -6t-30 -31t-29.5 -29q-6 -2 -46 14.5t-56 26.5q25 27 24 86q-31 0 -54.5 -44t-51.5 -44q-20 0 -45 22.5t-46 22.5q-16 0 -34 -12l-13 -8q-6 -4 -16 -4q-2 0 -6 2h-4q-14 8 -41 22 l-27 13q-12 6 -14 6l-55 6q-59 4 -117 8h-23v-76q-8 12 -51 41l-4 2h-6q-20 0 -31 -22q-14 -35 -20 -41h-4q-4 -2 -7 -2q-2 0 -34 39q-12 16 -37 45q-219 23 -379 22h-174h-62q-41 -2 -61 -2h-41q-31 -6 -90 -59q-35 -33 -43 -37q-25 -20 -51 -27q-4 53 -40 89t-87 36 q-92 0 -136 -63q-10 -18 -20 -39q-16 -25 -31 -25q-25 0 -68.5 12.5t-68.5 12.5q-74 0 -130 -66.5t-56 -140.5v-10q2 -6 2 -10q43 -18 75 -19q31 -2 89 6q27 4 30 -45q2 -29 2 -86h-94v82h-102q-6 0 -29 -47q-14 -27 -33 -76q-2 -4 -8 -49l-12 -84q-6 -45 -21 -133l-20 -82 q-2 -6 -17 -104l-110 -693q-12 -70 -17 -104v-21q-2 -14 -2 -20zM1903 561q0 115 39.5 337t39.5 337q-6 0 -28.5 8t-28.5 6q-27 -14 -49 -182q-10 -84 -33 -248l-41 -287l-20 -20h-561q0 117 46 344t46 344q0 51 -45 51q-33 0 -39 -43l-109 -696h-612q0 80 55 428 q51 338 105 612q57 311 69 312l459 10l832 -10q84 29 182 39q31 2 53 2h10q41 -20 62 -41q27 0 80 2h82.5h82.5q55 -2 82 -2q37 0 109 -15q14 -4 14 -6v-41l-209 -1310h-651q-16 0 -22 32q-2 12 -1 23.5t1 13.5zM205 1004q14 -6 20 -21v-20q-6 -16 -20 -41v82zM3138 1806 q0 -49 -50 -49q1 49 50 49zM307 1843q16 0 17 -20q0 -20 -17 -21q-16 0 -16 21q0 20 16 20zM2980 1905h10q18 -8 41 -21l2 -4v-6q0 -23 -37 -29q-27 -6 -53 -6q0 66 37 66zM3195 1888v-24h-41q12 24 41 24zM963 1987h20q16 -6 41 -21q4 -53 -61 -53v74zM1741 1946h61 q-8 -27 -61 -27v27zM1987 1987q63 20 63 71q0 47 -22 51q8 23 40 23q74 0 99 -115q6 -31 6 -53q0 -45 -43 -39q-8 0 -55 19q-25 6 -68 22q-14 7 -20 21zM672 2013q57 0 65 -26q-6 -14 -20 -21h-4q-4 -2 -6 -2q-35 0 -35 49zM2335 1987h20v-21h-20v21zM2703 2007q2 0 7 2h4 q35 0 34 -43h-45v41zM1290 2007q10 -4 10 -10t-10 -10t-10 10t10 10zM553 2028h20v-21h-20v21zM2376 2185q82 0 91 -31.5t15 -39.5q10 -14 37 -21.5t88 -19.5q39 -10 39 -60q-154 0 -192 19q-78 32 -78 153zM1249 2068l21 -20h-21v20zM1884 2068h41l-20 -20zM2273 2089 q-6 -14 -20 -21h-4q-4 -2 -6 -2h-5q-4 2 -6 2zM430 2109q16 0 16 -20t-16 -21q-16 0 -16 21q0 20 16 20zM829 2132h7l4 -2q14 -6 20 -21q-8 -27 -65 -26q-1 49 34 49zM410 2130q16 0 16 -21q0 -20 -16 -20t-17 20q1 21 17 21zM528 2157q57 0 66 -27q-6 -14 -21 -21h-4 q-4 -2 -6 -2q-35 1 -35 50zM1720 2150q33 2 86.5 34t83.5 32q0 -47 -34.5 -78t-83.5 -31q-2 0 -7 2h-4q-25 16 -41 41zM2642 2150q10 -6 20 -6q18 0 43 23q37 35 64 35q0 -72 -96 -72h-11q-14 6 -20 20zM823 2329q0 -63 -24 -117q-31 -66 -88 -66q0 59 26 115q33 68 86 68z M942 2171q16 0 16 -21q0 -20 -16 -20t-16 20q0 21 16 21zM1065 2171l61 20l-41 -41zM1700 2191q16 0 16 -20t-16 -21q-16 0 -17 21q1 20 17 20zM1290 2212q16 0 17 -21q0 -20 -17 -20q-16 0 -16 20q0 21 16 21zM2109 2273q2 8 17.5 16.5t23.5 4.5t33 -28.5t29 -33.5l-21 -20 l-61 41q-15 6 -21 20zM1208 2294q16 0 17 -21q0 -20 -17 -20q-16 0 -16 20q0 21 16 21z" />
<glyph unicode="n" horiz-adv-x="2560" d="M18 543q0 -311 222 -445q172 -104 503 -112q96 -2 269 6q193 6 268 6h102h158q104 2 158 2h104q231 31 357 133q141 115 176 338l205 1311q0 6 2 16v16.5v18.5l-2 10q-18 14 -41 41v123q-4 27 -29 27q-23 0 -47 -2q-70 -6 -70 49q0 23 18.5 34t36.5 21q10 6 11 25 q0 66 -176 125q-152 49 -236 49l-1362 -2q-31 -6 -72 -19q-59 -18 -61 -20q-12 -8 -83 -104.5t-130 -184.5q-70 -104 -74 -121q-88 -438 -205 -1249v-19v-28q-2 -16 -2 -27v-18zM512 512v123l184 1167l41 41h1270q29 0 36 -9t7 -38v-18q-2 -10 -2 -17l-184 -1229l-41 -40 l-76 -3q-31 -2 -61 -2h-50h-98q-217 -4 -330 25q-14 6 -20 20l55 316q29 162 29 315v39l-2 27l-21 20q-82 -49 -100 -231q-6 -109 -23 -324q-23 -174 -102 -202h-29h-43q-29 -2 -43 -3h-125q-114 0 -272 23zM410 1720l20 -20h-20v20zM389 1741q-2 -10 -10 -10t-10 10t10 10 t10 -10zM2458 1884q16 0 16 -20t-16 -21q-16 0 -17 21q1 20 17 20zM410 1946q8 23 41 22q27 0 47 -19.5t20 -45.5q-85 0 -108 43zM451 2048q16 0 16 -20t-16 -21q-16 0 -17 21q1 20 17 20z" />
<glyph unicode="o" horiz-adv-x="3194" d="M18 537q0 -281 160 -410q129 -106 383 -125q113 -8 232 -6t231 2h61h93q61 2 92 2h61q20 8 82 20h41q2 0 51 -8q18 -4 51 -12h922q256 0 387 205q100 156 144 450q8 61 28 314q16 193 45 311l41 174q51 217 51 350q0 31 -29.5 65t-31.5 56q0 10 8 31l12 31v20 q-12 49 -20 61q-162 176 -287 226q-57 20 -123 20h-614q-33 0 -64.5 -42t-78.5 -42h-31q-20 2 -31 2l41 62l-20 20h-451q-2 0 -20 -41q-2 -4 0 -10q4 -8 4 -10h-31q0 45 -2 49q-6 14 -43 14q-16 0 -37 -12l-14 -8q-8 -4 -21 -4q-35 0 -61 22h-615q-51 0 -154.5 -58 t-131.5 -106q-2 -2 -2 -14q0 -8 2 -27v-26v-15q-8 -18 -58 -51q-39 -27 -45 -71q-18 -166 -67 -430q-61 -336 -76 -431q4 -33 4 -65q0 -84 -34 -242.5t-34 -240.5zM1434 102q16 0 16 -20t-16 -21q-16 0 -17 21q1 20 17 20zM1432 270q0 66 43 78q20 -20 20 -41 q0 -41 -20 -123q-6 -14 -21 -20q-22 38 -22 106zM489 530v13q2 6 3 10l96 594q47 293 88 594q10 37 12 45q10 29 29 37q-2 0 162 6l229 8l162 6h184q31 6 93.5 55.5t90.5 49.5q49 0 62 -105h676q4 23 51 23h16q10 -2 15.5 -2t41 -20.5t41 -21.5t15.5 -1q12 0 35.5 3t34.5 5 q57 2 57 -45v-23l-184 -1208q-4 -31 -41 -61q-2 0 -275 -7l-559 -12q-74 -2 -108 -2h-41l-820 21q-29 -2 -86 -5q-80 2 -80 43zM1194 1174q424 0 649 -27q84 12 84 63q0 39 -43 39h-635q-55 1 -55 -75zM2867 1925q2 0 6 2h4q35 0 35 -43h-45v41zM424 2087q53 0 93 -39 t40 -92t-65 -53q-49 0 -62 75q-6 31 -6 62v47zM2683 1946q-2 -10 -10 -11q-8 0 -11 11q-2 10 11 10q12 0 10 -10zM1802 2007q-4 -10 -10 -10t-10 10t10 10t10 -10zM2560 2048q16 0 16 -20t-16 -21q-16 0 -16 21q0 20 16 20zM1350 2079q0 2 2 6v4q16 25 41 41l4 2h6h6l4 -2 q25 -16 41 -41l2 -4v-6q0 -33 -53 -33t-53 33zM1569 2089h98q0 -16 -16.5 -28.5t-32.5 -12.5t-32.5 12.5t-16.5 28.5zM2396 2068l62 21v-45q-12 0 -21 4q-16 6 -41 20zM2949 2068h41l-20 -20zM1556 2130q16 0 17 -21q0 -20 -17 -20q-16 0 -16 20q0 21 16 21zM1651 2232h84 q0 -82 -56 -82q-10 0 -19 22.5t-9 59.5zM1536 2191q16 0 16 -20t-16 -21q-16 0 -16 21q0 20 16 20zM1516 2212q10 -4 10 -10t-10 -11q-10 -4 -11 11q1 14 11 10z" />
<glyph unicode="p" horiz-adv-x="3215" d="M20 -164q33 -207 148 -340q131 -152 324 -151h593q231 0 359 215q76 133 133 420l41 20q37 0 113 -2h114h322q330 0 452 27q328 72 392 426q0 12 18 127q10 80 35 237l16 117q8 55 12 92v20q104 528 105 756q0 252 -172 387q-164 127 -426 127q-25 0 -73 -11t-75 -11 q-43 0 -124.5 11t-124.5 11q-236 0 -359 -61h-4q-4 -2 -6 -2t-6 2h-4q-10 8 -31 22q-29 18 -31 19q-51 23 -102 22h-127h-37q-27 -2 -39 -2h-22q-23 -8 -52 -33q-4 -10 -2 -24v-41q-33 0 -46 27.5t-25 56.5q-10 16 -39 14q-80 -4 -117 0q-27 0 -154 13q-92 8 -151 8 q-31 0 -57 -33q-35 -41 -54 -49q-4 -2 -16 -2q-8 0 -25 2h-26h-15q-324 -117 -348 -471q6 -14 19.5 -21.5l31.5 -17.5q12 -8 31 -23l2 -4v-6q0 -6 -50 -33.5t-54 -58.5l-164 -1086q-8 -20 -21 -81v-41zM510 -86q0 41 10 82l19 86q16 84 16 123q0 20 -2 41l225 1413l-20 41 v20q47 96 61 103h160q39 0 115 2h114h365h115q76 -2 114 -2h123q-2 0 229 -6l459 -13q61 -2 90 -2q0 -12 2 -37v-34q0 -197 -39 -449q-16 -106 -81 -442q-29 -150 -45 -287l-21 -51h-1331l-8 -10q-33 -47 -33 -62l-84 -594h-531q-4 0 -12 8.5t-8 12.5q-2 49 -2 57z M1268 1198q0 -2 2 -10q10 -20 20 -21q88 -20 230 -22q59 -2 116.5 -1t104.5 1h61q31 0 92 2h93h61q43 20 43 61t-23 41h-757q-16 0 -41 -41v-4q-2 -4 -2 -6zM1884 2089q16 0 17 -21q0 -20 -17 -20q-16 0 -16 20q0 21 16 21zM696 2109h62q0 -4 -8.5 -12t-12.5 -8 q-21 0 -41 20zM2068 2130q0 -2 3 -6v-4v-6l-3 -5q-6 -14 -20 -20v6q-2 2 -2 4t2 6v4q6 15 20 21zM918 2191h24v-82q-24 29 -24 82zM1270 2232v-102q0 -2 -41 -21q-10 -4 -25 -4q0 27 6 72q8 55 19 55h41zM2273 2130h41v-21h-41v21zM2458 2150q16 0 16 -20t-16 -21 q-16 0 -17 21q1 20 17 20zM2540 2150q16 0 16 -20t-16 -21q-16 0 -17 21q1 20 17 20zM2437 2150q-4 -10 -10 -10t-10 10t10 11q14 -1 10 -11zM2519 2171q16 0 16 -21q0 -20 -16 -20t-16 20q0 21 16 21zM2642 2171q10 -2 10 -10t-10 -11q-10 -2 -10 11q0 12 10 10zM1413 2191 l103 21v-21q-4 -4 -31 -8l-51 -12h-11q-6 -2 -10 -2v22zM1782 2191q16 0 16 -20t-16 -21q-16 0 -17 21q1 20 17 20z" />
<glyph unicode="q" horiz-adv-x="3297" d="M1452 -299q0 -35 23 -41q74 -18 88 -43q4 -10 2 -20q-10 -25 -9 -29q2 -6 21 -10h82q8 -4 24.5 -18.5t16.5 -22.5v-164q0 -10 20 -21q33 -12 84 -18q14 -2 19 -2h676q137 0 243 98q92 86 144 223q29 84 43 170l225 1414v245q-16 20 -39 62l-23 41q0 49 64 43q23 -4 43 -2 q18 2 18 30v6l-2 5l-41 41v4q-2 4 -2 6q0 4 2 8v2l103 61q6 6 6 19q0 49 -88 63v21q16 41 41 82h20q2 -2 15 -8l26 -13q39 -20 41 -20h15q8 0 26 2h27q14 0 20 -12q6 -25 15 -52h4q2 -2 6 -2q2 0 6 2h4q27 23 82 66q14 10 21 16h286l21 21l18 74q6 29 12 59l11 51v16 q2 10 2 15h-201q0 4 -3 13t-3 16q0 23 20 22h185q10 0 20 21l2 4v6v6q-2 2 -2 4l-55 10q-57 10 -127 10q-94 0 -279.5 -12t-279.5 -12q0 -43 76 -49q41 -2 112 -8q43 -6 131 -17q23 -4 33 -4l41 -41q-6 -14 -20 -20q-23 -8 -62 -13q-47 -8 -61 -8v-20l20 -41q-4 4 -4 -21 h-221q-33 0 -64 64q-14 35 -39 80q-51 51 -161.5 97t-186.5 46h-2191l-123 -61l-205 -328v-21q0 2 13 -41q8 -29 8 -41q-2 -8 -17.5 -23t-23.5 -18q-25 -143 -64 -249q-18 -47 -39 -78l-123 -776v-37q-2 -27 -2 -39v-33q0 -301 134.5 -436t431.5 -135h26h41q25 2 39 2h27 q49 68 102 82q-4 -10 -4 -19q0 -25 20.5 -44t45.5 -19h481v-107h29q33 2 43 4l122 21q2 0 9 -2h8q0 -14 -60.5 -68.5t-60.5 -134.5zM1661 -483h-64l-2 -13q-6 -16 -18 -90v-14q-2 -8 -2 -12q86 0 86 129zM1638 -319q16 0 17 -21q0 -20 -17 -20q-16 0 -16 20q0 21 16 21z M1556 -238q16 0 17 -20q0 -20 -17 -21q-16 0 -16 21q0 20 16 20zM1841 -170q0 37 12.5 106.5t12.5 106.5q0 23 -22.5 59.5t-22.5 59.5q0 2 2 6v4q51 80 63 139q8 37 8 148h-1362l-40 41l102 686q0 55 -51 55q-18 0 -72 -43q-10 -8 -29 -8q0 66 74 94q27 8 56.5 20.5 t41.5 34.5q41 86 41 269q0 41 -30 41q-23 0 -47.5 -46.5t-24.5 -58.5q-4 -4 -10 -4q-12 0 -35 55.5t-59 55.5q-2 0 -29 -29t-29 -29q-68 -59 -153 -59q0 74 100 119q25 12 77 28.5t77.5 27.5t52.5 83q10 27 18 51l10 29q2 0 7 2h4q23 0 45 -38t47 -38v45q37 0 110 17l50 10 q25 4 55 4q20 0 52 -11.5t50 -11.5q16 0 28.5 11.5t35.5 11.5q53 0 69 -43h369q18 43 72 43q25 0 62.5 -22.5t66.5 -22.5q61 0 84.5 32.5t31.5 32.5h7l4 -2q35 -27 61 -61q2 12 25.5 35.5t36.5 25.5q4 0 14 -6l27 -12q43 -23 41 -23q80 -23 217 -22q31 0 90 11t90 11h33 l57 -6q111 -14 172 -24q41 -8 57 -11q35 -55 140 -47q25 2 45 6q-41 -41 -82 -102q-4 -6 -78 -98l-45 -56q-20 -25 -21 -30q4 -20 35 -23q12 -2 23.5 -1t15.5 1q20 0 86 39q12 6 33 6q117 0 117 -53v-6l-2 -4q-25 -41 -41 -41h-144q-6 -16 -20 -41h-21l-61 20h-21 q-20 -10 -20 -20l-205 -1372q-12 -68 -24 -135q-20 -70 -99 -70h-471q-29 0 -36 8t-7 39zM1700 29q16 0 16 -21q0 -20 -16 -20t-17 20q1 21 17 21zM1065 90h49q0 -35 -49 -41v41zM1556 70h21v-21zM1657 213h43l6 -14q20 -57 35 -109v-10q0 -33 -41 -33h-10q-6 2 -11 2 q-22 148 -22 164zM1208 172q16 0 17 -20q0 -20 -17 -21q-16 0 -16 21q0 20 16 20zM1290 193q16 0 17 -21q0 -20 -17 -20q-16 0 -16 20q0 21 16 21zM1206 1165q0 -4 2 -10q20 -20 72 -22q20 -2 39.5 -1t32.5 1h20q10 0 31 2h31h20q70 41 102 82l-20 20q4 0 -41 4l-31 2h-22 h-51q-185 0 -185 -78zM1659 1196q27 -41 96 -55q39 -8 111 -8h22q80 -6 80 32q0 31 -72 56q-63 18 -100 18q-108 0 -137 -43zM2765 1176h20v-21h-20v21zM203 1247q0 2 2 6v4l20 21q49 41 62 41q63 0 63 -70q0 -53 -33 -53h-10q-6 0 -55 16.5t-49 34.5zM2785 1282v-45h-45 q0 45 45 45zM3031 1278h41v-21h-41v21zM225 1360q2 0 6 2h5q2 0 13 -4t17 -19h-41v21zM367 1362v37q0 86 43 104l4 2h6q18 0 55 -47t37 -67q0 -53 -39 -54q-20 0 -53 12.5t-53 12.5zM3072 1401q0 4 8 12t12 8q20 0 41 -20q-6 -14 -20 -21h-4q-4 -2 -6 -2t-6 2h-5 q-14 7 -20 21zM594 1401q-4 -10 -21 -10q-16 0 -20 10q-4 8 20 8q25 0 21 -8zM2886 1616q0 33 53 39q18 2 37 2q18 -2 24 -2q0 -76 -51 -90l-41 20q-8 6 -20 21v4q-2 4 -2 6zM3052 1688q2 0 6 2h4q35 0 35 -52q-35 1 -45 50zM451 1769l20 21v-41zM3092 1872q16 0 17 -21 q0 -20 -17 -20q-16 0 -16 20q0 21 16 21zM430 1892q-2 -10 -10 -10t-10 10t10 11q12 -1 10 -11zM2765 1892q-2 -10 -10 -10t-11 10q-2 10 11 11q12 -1 10 -11zM2867 1913q-4 -10 -20 -10t-21 10q-4 8 21 8q24 0 20 -8zM3727 2097h41v-20h-41v20z" />
<glyph unicode="r" horiz-adv-x="2211" d="M20 512q0 -205 135.5 -358.5t336.5 -153.5h675q111 0 252 78q156 84 178 188l82 369q10 41 113 94q53 23 133 70q80 74 115 157q27 63 49 191q4 20 12 74l62 374q8 61 28 187v30q0 197 -133 347q-141 156 -338 155h-1044l-266 -61q-35 -8 -78 -113q-35 -102 -111 -299 q-18 -41 -37 -59v-25v-37q-2 -27 -2 -39v-22q0 -33 11.5 -98.5t11.5 -98.5v-8q-6 -8 -37 -37q-20 -18 -25 -45q-12 -72 -43 -338q-23 -209 -55 -334q-25 -90 -25 -188zM500 492l135 901q-4 35 24 176q27 131 50 215q8 35 8 39h962q20 0 21 -39v-23q-4 -33 -23 -143l-35 -213 q-6 -51 -24 -156l-10 -55q-4 -16 -6 -27l-5 -10h-321l-113 -665h-663z" />
<glyph unicode="s" horiz-adv-x="2826" d="M18 532q0 -201 101 -354q115 -178 311 -178h1741q172 0 293 133q106 119 137 297l94 553q18 121 37 229l33 197q14 86 20 127q0 4 2 10v10q0 18 -11 37t-11 35v10q8 10 22 31q18 29 19 31v18q0 393 -273 531q-94 45 -219 45h-1638q-186 0 -301 -117q-88 -90 -144 -279 q-33 -109 -67 -321q-2 -4 -2 -21q0 -16 2 -20l-144 -915v-31q-2 -20 -2 -31v-27zM489 520q0 59 19 160q20 117 24 160q27 41 62 41h922q23 0 22 51q0 51 -22 51h-902q-31 0 -39 14q-4 8 -4 43v23q2 14 2 22l103 635q-6 20 20 62l13 18l8 12h1474q68 59 121 60 q0 -47 22.5 -138.5t22.5 -138.5q0 -20 -16.5 -37.5t-32.5 -33.5q-8 -10 -14 -26.5t-23 -84.5q-6 -27 -18 -82l-62 -20h-942q-16 0 -38.5 -17.5t-22.5 -33.5v-11q14 -31 20 -30h1004q4 0 20 -52v-20l-106 -676h-1614q-23 0 -23 49zM2580 1577h21l-21 -21v21zM2417 1618 q8 27 65 27q0 -49 -35 -50q-2 0 -6 2h-4q-14 7 -20 21zM2415 1792v6q2 2 2 4q63 -23 63 -61v-10q-2 -6 -2 -11q-35 27 -61 62v4q-2 4 -2 6zM2150 1925q16 0 17 -20q0 -20 -17 -21q-16 0 -16 21q0 20 16 20zM2621 2068q16 0 17 -20q0 -20 -17 -20q-16 0 -16 20t16 20z" />
<glyph unicode="t" d="M963 82q16 -10 32 -23l31 -28q37 -33 68 -33q49 0 73 22h27q14 0 45 3h43h29q47 0 90 -5l168 -16q43 -4 90 -4h29h43q29 2 43 2h28q12 27 94 53q25 8 29 8t20.5 -10t20.5 -10h14q10 -2 17 -2q33 0 61 22l51 41q209 123 246 328l62 348l20 82q8 68 23 203l18 186v185 q0 2 21 30q6 12 20 31q20 41 21 41q12 74 26 147q14 88 14 150q0 139 -81 291q-94 168 -226 190l-368 62q6 49 6 96q0 156 -62 285q-66 137 -190 215q-96 59 -225 59h-656q-182 0 -305 -137q-98 -113 -147 -316q-41 -164 -41 -340q0 -20 12 -47l8 -18q4 -10 4 -25 q0 -14 -18 -32q-27 -29 -31 -35q-8 -16 -14 -53l-164 -1147q-63 -195 -64 -361q0 -188 107 -327q117 -154 297 -154h29q10 0 32 2h33h16q31 0 70 14q33 12 33 33q0 14 -21 35q63 -6 100.5 -56.5t43.5 -50.5q16 0 22 13.5t13 27.5q4 6 16 6q16 0 37.5 -22.5t42.5 -22.5 q54 1 74 64zM1536 143h20v-41h-20v41zM963 164q10 -4 10 -21q0 -16 -10 -20t-11 20q1 25 11 21zM1659 164q0 10 20 20l4 2h6.5h6.5l4 -2q14 -6 20 -20l2 -4v-7v-6l-2 -4l-41 -20q-20 21 -20 41zM932 414q74 0 74 -117q0 -47 -23 -72q-51 60 -51 189zM901 492h-369 q-23 0 -22 49q0 59 22.5 160.5t22.5 160.5q0 18 -12.5 41t-12.5 39q0 23 29 80l21 41q10 23 14 43l225 1434l43 4q41 2 101 6l120 6q106 4 105 4h205q20 -23 20 -59q0 -98 -42 -285.5t-42 -284.5v-12q-6 -55 23 -55h676l40 -21q2 -47 3 -57q0 -70 -17 -166q-12 -84 -26 -166 q-4 -47 -23 -129q-25 -53 -100 -55l-478 -15q-68 0 -198 -6v-10q-2 -6 -2 -10q0 -33 22 -41q2 0 156 -6l221 -8q160 -6 156 -7h164q23 -4 22 -24v-33q0 -260 -53 -477q-20 -78 -51 -141q-135 2 -246 0q-2 0 -428 -17q-106 -4 -229 -4q-35 1 -60 21zM205 655q2 0 6 2h4h6 l4 -2q14 -6 21 -20h-4q-4 -2 -6 -2t-7 2h-4q-14 6 -20 20zM2130 717h20v-21h-20v21zM143 758q16 0 17 -21q0 -20 -17 -20q-16 0 -16 20q0 21 16 21zM369 819q16 0 16 -20t-16 -21q-16 0 -17 21q1 20 17 20zM410 942q16 0 16 -20t-16 -21q-16 0 -17 21q1 20 17 20zM389 963 q16 0 17 -21q0 -20 -17 -20q-16 0 -16 20q0 21 16 21zM389 1024q0 -2 2 -6v-4v-6l-2 -4q-16 -25 -41 -41v6q-2 2 -2 4t2 6v4q16 25 41 41zM492 1249q16 0 16 -20t-16 -21q-16 0 -17 21q1 20 17 20zM2208 2171h137q0 -25 -35 -35q-23 -8 -59 -8q-43 0 -43 43zM2081 2261 q6 0 24 2q86 4 86 -41q0 -14 -15 -45t-32 -31q0 47 -31.5 66.5t-31.5 48.5zM367 2222q0 35 49 35q0 -57 -27 -66q-14 6 -20 21v4q-2 4 -2 6z" />
<glyph unicode="u" horiz-adv-x="2539" d="M18 520q0 -242 123 -352q82 -76 330 -168h1249q537 0 615 492l184 1183q0 12 2 35v37v31q0 330 -211 463q-168 106 -489 110q-98 2 -277 -6q-190 -8 -274 -8h-164h-115q-76 -2 -114 -2h-160q-14 -2 -47 -8l-74 -13q-96 -18 -145 -41q-170 -141 -228 -346 q-25 -88 -59 -432l-21 -41q-125 -631 -125 -934zM328 287q-10 -10 -41 -11q-31 0 -41 11q-8 8 41 8t41 -8zM430 307q16 0 16 -20t-16 -21q-16 0 -16 21q0 20 16 20zM2089 328h61v-21h-61v21zM492 532l184 1127q-4 20 -4 41q0 68 45 123q201 18 342 22h115h24h29q18 -2 28 -2 h15l20 -20l-26 -144q-57 -309 -58 -481q0 -12 2 -37v-35q0 -4 8.5 -12t12.5 -8q20 0 41 20q8 49 33 181q6 33 8 45v20l61 389q6 27 21 62l20 20h615q23 0 22 -49v-16q-2 -10 -2 -17l-164 -1106q-6 -31 -20 -92q-18 -72 -41 -71h-1311q-10 0 -20 20v20zM246 1167 q-2 -10 -10 -10t-11 10q-2 10 11 11q12 -1 10 -11z" />
<glyph unicode="v" horiz-adv-x="2498" d="M244 113q0 -2 2 -11q33 -47 141 -77q86 -25 145 -25h574q31 0 108 20q98 23 99 52q0 37 -94.5 43t-94.5 37q0 53 33 110q37 66 82 66h10l123 -21h21l327 41q6 14 21 21l266 225q37 31 41 41l10 33q6 25 10 28l62 31q27 12 61 31q123 86 197 313q82 254 90 645 q2 100 2 174q0 174 -129 299t-303 125h-1311q-176 0 -311 -78q-154 -90 -180 -249l-144 -840q4 -35 4 -70q0 -82 -34 -233q-53 -229 -54 -309q0 -135 31 -162q6 -8 37 -25q18 -10 37 -41q8 -14 24 -78q4 -27 58 -26q43 0 106.5 43t104.5 43q8 0 22 2q55 4 56 -35v-4 q-2 -4 -2 -6q-94 -88 -170 -109q-33 -8 -76 -14v-4q-2 -4 -2 -6zM788 166q-18 0 -41.5 -11.5t-39.5 -11.5t-35 11.5t-37 11.5q-20 0 -50 -12.5t-53 -12.5h-20q-14 2 -20 2q16 41 104 47q82 4 82 46q0 33 -60 38q-23 2 -40 2q-20 -2 -25 -2v13l16 4q25 4 86 12l41 4h103 l-21 -41q96 -29 125 -41q68 -31 101 -82q-29 -23 -62 -22q-29 0 -78 22.5t-76 22.5zM1233 207q0 -68 119 -68v45q-4 2 -31 11l-51 10q-2 0 -37 2zM1495 246q0 -4 8 -12.5t13 -8.5q35 0 61 41q-6 14 -21 21l-4 2h-6h-6l-4 -2q-25 -16 -41 -41zM922 307q6 0 16 2h14 q90 0 113 -43q-8 -23 -41 -22q-55 0 -102 63zM512 717l174 1106h571q0 -98 -35.5 -289t-35.5 -287q0 -61 45 -61q41 0 42 41t54 366q6 49 25 148q6 29 20 82q152 23 295 22h141h60q39 -2 59 -2h39q43 10 43 -39v-18v-23q-2 -14 -2 -22q-14 -135 -29 -273q-20 -156 -69 -262 q-37 -80 -107 -141q-115 -100 -174 -154l-115 -102q-33 -29 -79 -72l-82 -82q-20 -20 -109 -88l-51 -39q-20 -16 -25 -16h-682v43q0 117 27 162zM225 676q16 0 17 -21q0 -20 -17 -20q-16 0 -16 20q0 21 16 21zM1823 717q16 0 16 -21q0 -20 -16 -20t-17 20q1 21 17 21z M205 778q16 0 16 -20t-16 -21q-16 0 -17 21q1 20 17 20zM2068 1597q16 0 17 -20q0 -20 -17 -21q-16 0 -16 21q0 20 16 20zM1700 2273q16 0 16 -20t-16 -21q-16 0 -17 21q1 20 17 20z" />
<glyph unicode="w" horiz-adv-x="3092" d="M920 31q0 -2 2 -11l20 -20q20 0 41 20l2 5v5v7l-2 4q-6 14 -20 20l-5 2h-6h-6l-4 -2q-14 -6 -20 -20v-4q-2 -4 -2 -6zM461 145h8l2 -2q106 -123 195 -123h10q14 6 20 21q-86 145 -225 145q-20 0 -41 -2q14 102 102 103h328q23 -27 98 -27q14 0 43 3t43 3q8 -23 43 -33 q29 -8 58 -14q53 -18 53 -53q0 -18 -10 -43l41 41q8 12 20 33q6 10 21 28q2 2 51 13q23 2 51 8q14 18 41 41l8 2h13q47 0 134 -63.5t142 -63.5q41 0 45 28q2 8 0 25q-4 18 -4 25q57 0 72 -11q20 -16 20 -75q0 -29 -67 -52l-56 -18q-29 -10 -41 -23q2 6 2 13q0 10 -22.5 38.5 t-22.5 39.5q0 6 2 12q-86 -37 -204 -123q74 4 202 -8q143 -12 201 -13q31 0 53.5 24t42.5 48q12 12 33 12q16 0 89 -43t116 -43q63 0 63 33v6l-2 4q-16 25 -41 41h164q20 41 41 62h21q-2 0 41 -12q29 -8 41 -9q29 4 63 68q31 57 80 57q16 0 46 -11t46 -11q98 0 143 160 q31 106 31 229q0 4 -10 20.5t-10 20.5l20 41q8 12 21 61q10 70 28 211l74 506q12 72 27 143q14 84 14 144q0 221 -138 366.5t-354 145.5h-1208q-12 -8 -61 -21h-21q-49 12 -61 21h-307q-12 -8 -62 -21h-20l-41 21h-8q-272 0 -440.5 -172t-168.5 -453q0 -47 23 -51l-41 -82 q-16 -188 -37 -379l-45 -379q-4 -39 -35 -127q-29 -80 -29 -129q0 -164 64 -207q29 -20 65 -18q37 0 76 4q100 6 146 -35q-63 -49 -64 -133v-27q2 -16 2 -24q25 -23 76 -23q31 0 41 43t37 43zM1925 143q16 0 17 -20q0 -20 -17 -21q-16 0 -16 21q0 20 16 20zM1905 225 q16 0 16 -20t-16 -21q-16 0 -17 21q1 20 17 20zM1946 225q29 63 141 64h53h37q23 -2 35 -2q27 -10 26 -78q-80 0 -92 31q-10 20 -15 24t-30 4q-27 0 -68.5 -31.5t-66.5 -31.5q-4 0 -12 8t-8 12zM2449 301q0 -104 -186 -104q0 70 64 92q36 12 122 12zM410 246q16 0 16 -21 q0 -20 -16 -20t-17 20q1 21 17 21zM2355 225q4 10 -10 11q-14 0 -10 -11q4 -10 10 -10t10 10zM1229 287h20v-21h-20v21zM2724 348q0 -2 2 -6v-4v-6l-2 -4q-6 -14 -21 -21h-4q-4 -2 -6 -2h-4q-4 2 -6 2zM532 758q6 68 29 246l33 245q0 12 20.5 81t20.5 83q0 2 10 113 q2 43 10 112q0 10 19 60q6 23 22 63q10 20 21 21h532q-23 -45 -22 -94q0 -51 45 -52q41 0 57.5 83t42.5 83h430l62 -20q4 -4 4 -66q0 -104 -31 -312t-31 -312q66 0 84 86q2 51 15 153l82 451l61 20h532v-286l-20 -41q-6 -12 -35 -189q-12 -76 -24 -153l-23 -129 q-4 -27 -16 -144q-4 -29 -4 -41v-18q-2 -12 -2 -19q0 -6 2 -24l184 -62q-27 -25 -96 -30q-31 -4 -88 -11q-39 -10 -42 -86.5t-61 -76.5h-1851q0 12 2 40l2 62q0 14 2 49t2 53q0 31 20 62zM2683 676q-2 -10 -10 -10t-11 10q-2 10 11 10q12 0 10 -10zM2785 719q33 0 41 -23 q-29 -27 -110 -26q-1 49 69 49zM205 737q10 -4 10 -10t-10 -10t-10 10t10 10zM348 901q-2 -10 -10 -10t-10 10t10 10t10 -10zM1165 1124q0 -31 23 -39q20 4 24 41v27q-2 12 -2 14v31q-2 20 -2 31q-43 -21 -43 -105zM1208 1454v-147q43 0 43 57v29q0 4 2 14v27q-4 37 -24 41z M2785 1638h62l-41 -20q-4 -4 -21 -4v24zM1208 1966q4 0 12.5 -8t8.5 -12q-8 -27 -70 -27q0 47 49 47zM1024 2068h25q0 -29 -25 -40v40zM635 2191l20 -20h-41z" />
<glyph unicode="x" horiz-adv-x="2621" d="M715 72q0 -33 26 -35q39 4 121 4q29 -4 39 -41h1004q199 0 348 197l82 110l102 510q0 39 -53 242q-10 39 -10 80q0 35 51 90q29 27 74 82q43 78 77 284q27 174 27 271q0 215 -150.5 362.5t-363.5 147.5h-1147q-16 -16 -119 -19q-86 -4 -86 -63v-246l-41 -41q6 -49 6 -98 q0 -152 -110 -152q-18 0 -39 4q-20 -25 -21 -47q0 -10 3.5 -27.5t3.5 -27.5h-27q-10 0 -16 47q-6 31 -7 68q0 45 23 69l41 -20h10q72 0 72 82q0 41 -21 123q-6 14 -20 20q-14 -6 -21 -20q-8 -23 -14 -33q-12 -20 -27 -21q-29 -4 -40 -28v20q12 25 36 74l4 8h27q0 8 -6 20 l-41 41v5q-2 4 -2 6q0 16 12.5 26.5t12.5 34.5q0 92 -64 92q-82 0 -149 -176q-55 -135 -91 -332q-29 -160 -28 -202q0 -41 12 -119t12 -119q0 -47 -32 -102q-45 -82 -52 -97q-102 -274 -102 -493q0 -80 82 -80q-25 0 -57 -10q-39 -12 -46 -31q57 -328 248 -446 q72 -47 172 -48q47 0 52 23q10 51 18 147q2 27 2 37q0 39 -20.5 112t-20.5 112v22q0 25 4 90l12 273q2 63 5 88q4 10 76.5 37.5t86.5 44.5v20l-20 61v21q4 -4 16 -12l49 -37q12 -10 17 -13h4q4 -2 6 -2q33 0 33 43q0 18 -22.5 41t-22.5 41q0 43 43 43h10q6 -2 10 -2l-20 -41 v-4q-2 -4 -2 -8q0 -31 71 -31q137 0 138 64v10q-2 6 -2 10q-37 31 -134 131q-20 20 -30 33q-61 68 -109 156q-16 31 -16 49q0 6 2 12v8l20 41l-20 41v11q0 51 24.5 78.5t24.5 109.5q59 0 156 2q117 4 157 6q150 2 293 -22q0 -6 2 -21v-20q0 -70 -31.5 -206t-31.5 -206 q0 -41 41 -41q43 0 61 84q12 59 33 184l16 113q8 51 13.5 69.5t23.5 41.5l17 22l634 -20v-21q0 -252 -129 -383q-43 -43 -151 -135q-100 -82 -150 -137q16 -57 150 -182q117 -113 117 -197v-10q-4 -16 -13 -58l-16 -86q-18 -90 -33 -143q-186 -23 -332 -23h-155q-18 0 -58 3 h-55h-35q-23 4 -22 49v16q2 10 2 16l82 504q0 31 -64 31q-41 0 -39 -43q-16 -115 -49 -344q-8 -43 -12 -86q-2 -16 0 -37q8 -106 -62 -106h-163q-12 0 -20.5 -19.5t-20.5 -83.5h-11q-6 -2 -10 -2q-43 0 -43 33q0 2 2 6v4q6 14 21 21q-2 0 -6 2h-4.5h-6.5l-4 -2l-61 -62 q-14 -12 -47 -19.5t-45.5 -15.5t-12.5 -24q0 -14 35 -35q25 -14 49 -29q84 -55 84 -143v-10q-2 -6 -2 -11q-20 20 -41 21q-16 0 -39.5 -17.5t-23.5 -33.5zM655 143l21 -20l20 20l-20 21zM836 336q45 0 45 -49q0 -4 -8.5 -12.5t-12.5 -8.5q-24 37 -24 70zM696 471v-41h45 q0 43 -34 43h-5q-4 -2 -6 -2zM225 532q-2 -10 -10 -10t-10 10t10 11q12 -1 10 -11zM492 1208q20 -20 40 -20t41 20v-30q0 -96 -36 -129l-27.5 -27.5t-17.5 -38.5v225zM512 1352q16 0 16 -21q0 -20 -16 -20t-16 20q0 21 16 21zM487 1585q12 0 70.5 -51t58.5 -59 q0 -63 -51 -64q-47 0 -65 66q-13 40 -13 108zM594 1597q16 0 16 -20t-16 -21q-16 0 -16 21q0 20 16 20zM567 1700h54q0 -53 -27 -62q-27 9 -27 62zM881 1966l20 -20h-20v20zM881 2068q25 -12 24 -40h-24v40zM614 2232q-10 4 -10 -10t10 -10t11 10q-1 6 -11 10zM860 2294 q27 -8 27 -62h-27v62z" />
<glyph unicode="y" d="M594 -33q-4 -35 -4 -69q0 -193 96 -359q133 -227 358 -227h717q174 0 308.5 118.5t162.5 290.5l348 2089q0 12 -14 103q-8 49 -26 143q-6 27 -21 41q-141 156 -285 207q-115 39 -352 39q-297 0 -594 -6q-199 -2 -592 -15q-55 -2 -143 -32q-109 -41 -186 -121 q-82 -86 -101 -195l-246 -1454q0 -244 162 -377q135 -115 391 -155zM1085 -168q0 98 42 288.5t42 289.5v30l-2 19l-41 20h-573q-29 0 -36 9.5t-7 37.5v19q2 10 2 16l82 533q12 49 20 61l107 696h569q16 0 23 -32q2 -14 2 -25q-2 -12 -2 -14q0 -94 -42 -273.5t-42 -271.5 q0 -41 41 -41q37 0 41 23l102 593l41 41h594q43 0 43 -39v-12q-2 -6 -2 -10l-332 -1987h-651l-21 21v8z" />
<glyph unicode="z" horiz-adv-x="2867" d="M18 551q0 -496 514 -551h89q45 0 137 -2h135h209h135q90 2 135 2h62q-4 0 217 18q39 2 49 2q74 0 268 -16q47 -4 60 -4h32q326 0 492 236q53 76 69 174l205 1228q23 53 23 162q0 240 -137 379q-127 125 -377 156h-84q-43 0 -127 2h-125h-193h-127q-82 -2 -125 -2h-59 q2 0 -246 -6l-497 -13q-39 0 -97 -2q-317 -16 -419 -379q-51 -174 -72 -430q-23 -244 -53 -385q-93 -399 -93 -569zM2068 102h123v-20h-123v20zM492 532l4 29q8 57 26 172l19 113q10 66 32 198l21 82v21q4 33 16 92q4 18 4 21h983q4 0 12.5 21.5t8.5 29.5q0 6 -8 18t-13 12 h-921q-10 0 -41 31v21q2 14 6 45l6 57q8 86 8 82q8 51 25 152l12 67l4 27l41 20h1598l41 -41l-103 -635q-10 -20 -20 -96q-8 -47 -62 -67q-39 0 -116 2h-119h-332h-117q-76 -2 -114 -2q-70 0 -181 -15q-33 -4 -45 -6q-23 -6 -18 -31q0 -6 3 -19t3 -22h1061q0 -276 -66 -391 q-16 -29 -41 -28h-1577zM369 1106q16 0 16 -21q0 -20 -16 -20t-17 20q1 21 17 21zM2478 1536h41v-20h-41v20z" />
<glyph unicode="&#xe4;" horiz-adv-x="3256" d="M18 502q0 -205 136.5 -353.5t337.5 -148.5h1290q16 8 41 20h20q31 -6 82 -20h43q23 0 66 -2h63h43q313 0 461 55q209 78 307 316q6 33 19 114l63 459q4 29 4 88q-29 0 -46 -17.5t-95 -17.5q0 -14 -6 29q-4 14 20 20l62 11q27 2 61 10q29 6 55 152q16 139 64 417 q10 57 24 86l15 74q8 49 18 113l23 131q10 68 20 131l17 112q6 49 10 74v15q0 10 2 30v33v27q0 225 -115 370q-123 160 -338 160h-1986q-14 -6 -140 -41q-82 -23 -127 -61q-117 -102 -186 -353q-82 -287 -98 -696q-4 -102 -4 -170v-22q0 -12 2 -35v-33v-23q49 -12 61 -20 q2 -2 15 -8l26 -12q39 -20 41 -21q4 0 20.5 10.5t20.5 10.5q10 2 36 -2.5t34 -4.5q0 -8 6 -20t8 -19q0 -16 -43 -16h-225q-8 0 -43 -133q-16 -57 -33 -125l-55 -227q-2 -8 -13 -47q-2 -10 -69 -297q-10 -45 -13 -52v-34q-2 -25 -2 -37zM1167 389q16 0 17 -20q0 -20 -17 -21 q-16 0 -16 21q0 20 16 20zM2806 430q16 0 16 -20t-16 -21q-16 0 -17 21q1 20 17 20zM492 492l-21 266q23 14 41 61q14 162 29 324q16 193 73 311l2 4v6v6l-2 5q-16 25 -41 41q29 35 86 174q53 133 58 133h1904q14 0 35 -45q6 -14 6 -17q-43 -186 -57 -323q-6 -57 -6 -107 q0 -23 12 -52.5t12 -51.5q0 -20 -28 -49l-21 -21q-10 -10 -14 -31l-102 -573l-21 -41q0 -4 -57 -10q-68 -10 -86 -10h-27h-55q-37 -2 -55 -3h-84q-18 0 -58 3h-55h-35q-14 6 -20 20v20q14 96 43 287l39 287q0 10 2 31v34v33l-2 25q0 4 -8.5 12t-12.5 8h-655q-23 0 -23 -43 q0 -49 64 -49h512q4 0 20 -31v-20l-82 -512q0 -39 -20 -82q-8 -14 -21 -20q-213 4 -581 -9q-416 -14 -580 -14h-25q-8 0 -26 2h-27h-10zM143 655q-4 -10 -10 -10t-10 10t10 11q14 -1 10 -11zM246 860q8 27 61 27v-53q-53 -1 -61 26zM2679 1067l4 -2q25 -16 41 -41h-82 q6 16 20 41l4 2h6.5h6.5zM2699 1454h25q14 -41 94 -139q66 -80 66 -144q-59 0 -125 111q-60 100 -60 172zM2990 1311v-41h-24q-1 29 24 41zM2888 1434h82v-21h-82v21zM717 1946v41l20 81q20 115 66 345q12 61 16 86h942l21 -41l-23 -113q-25 -125 -59 -379l-21 -20 q-4 -4 -129 -9q-57 -2 -129 -4l-143 -4q-147 -4 -254 -4q-92 0 -246 14q-45 5 -61 7zM2765 2460v-23q-8 -53 -21 -131l-26 -156q-14 -76 -25 -129l-10 -55l-21 -20h-850q0 90 35 313q23 143 49 207q14 33 29 33h819q21 0 21 -39z" />
<glyph unicode="&#xf6;" horiz-adv-x="3235" d="M20 512q0 -14 15 -90q31 -160 92 -238q141 -184 365 -184h1945q293 0 451 348q41 297 118 768q102 616 127 768q27 139 54 277q31 166 30 280q0 244 -96 364t-336 165q-281 -4 -764 8q-549 12 -761 12h-216q-233 0 -403 -76q-104 -47 -170 -129l-12 -14q-66 -82 -70 -109 zM369 164q16 0 16 -21q0 -20 -16 -20t-17 20q1 21 17 21zM1167 246l21 20v-41zM1659 307q16 0 16 -20t-16 -21q-16 0 -17 21q1 20 17 20zM901 481h-369q-18 0 -20 33q-2 12 -2 23v16q0 4 2 41l190 1208h1919l21 -20q-39 -211 -102.5 -635t-102.5 -635q-61 -43 -166 -43 q-20 0 -49 11.5t-49 11.5q-57 0 -166 -21.5t-164 -21.5q-18 0 -61 22l-29 14q-14 6 -33 7q-8 0 -51 -9q-59 -12 -51 -12h-31q-20 0 -60 10.5t-61 10.5h-12q-25 0 -88 -3l-272 -12q-66 -4 -90 -6q-6 -6 -30 -14t-32 -6q-21 -1 -41 30zM1927 1204l-2 4q-20 20 -20 21h-697 q-12 0 -18 -37q-6 -27 -6 -45h700q16 0 41 41l2 4v6v6zM735 1974v17q2 10 2 16q4 25 51 250q0 4 11 102q8 66 26 99q12 20 35 20h905q0 -35 -14 -178q-12 -127 -37 -248q-27 -127 -55 -127h-901q-23 0 -23 49zM1798 1925l90 553h858v-10q-2 -6 -2 -10q-23 -147 -51 -383 q-8 -57 -10 -68q-6 -20 -21 -61q-10 -20 -20 -21h-844zM2253 2642q16 0 16 -21q0 -20 -16 -20t-17 20q1 21 17 21z" />
<glyph unicode="&#x25fc;" horiz-adv-x="2375" d="M0 2376h2376v-2376h-2376v2376z" />
</font>
</defs>
</svg>
